<svg xmlns="http://www.w3.org/2000/svg" width="117.279" height="116.753" viewBox="0 0 117.279 116.753"><defs><style>.prefix__cls-1{isolation:isolate}.prefix__cls-7{fill:#b686fe}.prefix__cls-5,.prefix__cls-6{fill:#6935b7}.prefix__cls-5{stroke:#6935b7}</style></defs><g transform="translate(.998 .578)"><g ><g class="prefix__cls-1" ><g transform="translate(0 45.522)"><path d="M262.416 246.526l-36.179-20.85.312 48.331 36.177 20.85z" transform="translate(-226.237 -225.677)" fill="#501c9c" stroke="#501c9c"/></g><path d="M213.789 263.923l36.179 20.85 78.194-45.523-36.177-20.85z" transform="translate(-213.789 -218.401)" stroke="#b686fe" fill="#b686fe"/><g transform="translate(36.179 20.849)"><path d="M213.739 267.256l.31 48.331 78.2-45.521-.312-48.333z" transform="translate(-213.739 -221.733)" fill="#5b18c0"/></g></g></g><g transform="translate(36.179 20.528)"><g class="prefix__cls-1" transform="translate(76.493)"><g transform="translate(0 1.318)"><path d="M214.879 222.489l-1.033-.6.311 48.333 1.034.594z" class="prefix__cls-5" transform="translate(-213.846 -221.892)"/></g><g ><path d="M216.833 222.277l-1.035-.6-2.265 1.323 1.033.6z" class="prefix__cls-6" transform="translate(-213.533 -221.682)"/></g><g transform="translate(1.033 .595)"><path d="M213.484 223.1l.311 48.331 2.265-1.318-.31-48.333z" class="prefix__cls-7" transform="translate(-213.484 -221.777)"/></g></g><g class="prefix__cls-1" transform="translate(38.246 22.266)"><g transform="translate(0 1.32)"><path d="M220.992 226.046l-1.033-.6.311 48.331 1.034.595z" class="prefix__cls-5" transform="translate(-219.959 -225.451)"/></g><g ><path d="M222.947 225.835l-1.034-.595-2.267 1.319 1.033.6z" class="prefix__cls-6" transform="translate(-219.646 -225.24)"/></g><g transform="translate(1.033 .595)"><path d="M219.6 226.655l.312 48.331 2.267-1.32-.311-48.331z" class="prefix__cls-7" transform="translate(-219.596 -225.335)"/></g></g><g class="prefix__cls-1" transform="translate(57.367 11.133)"><g transform="translate(0 1.32)"><path d="M217.938 224.269l-1.035-.6.312 48.331 1.034.595z" class="prefix__cls-5" transform="translate(-216.902 -223.672)"/></g><g ><path d="M219.893 224.056l-1.035-.595-2.268 1.319 1.035.6z" class="prefix__cls-6" transform="translate(-216.59 -223.461)"/></g><g transform="translate(1.035 .595)"><path d="M216.54 224.878l.311 48.329 2.268-1.318-.312-48.333z" class="prefix__cls-7" transform="translate(-216.54 -223.556)"/></g></g><g class="prefix__cls-1" transform="translate(19.121 33.398)"><g transform="translate(0 1.321)"><path d="M224.048 227.826l-1.033-.6.311 48.331 1.033.6z" class="prefix__cls-5" transform="translate(-223.015 -227.231)"/></g><g ><path d="M226 227.616l-1.033-.6-2.268 1.321 1.033.6z" class="prefix__cls-6" transform="translate(-222.703 -227.02)"/></g><g transform="translate(1.033 .597)"><path d="M222.653 228.435l.312 48.333 2.269-1.323-.313-48.329z" class="prefix__cls-7" transform="translate(-222.653 -227.115)"/></g></g><g class="prefix__cls-1" transform="translate(0 44.53)"><g transform="translate(0 1.321)"><path d="M227.1 229.6l-1.032-.594.31 48.331 1.035.6z" class="prefix__cls-5" transform="translate(-226.072 -229.01)"/></g><g ><path d="M229.059 229.394l-1.034-.6-2.266 1.321 1.032.594z" class="prefix__cls-6" transform="translate(-225.759 -228.799)"/></g><g transform="translate(1.032 .595)"><path d="M225.709 230.215l.313 48.333 2.268-1.323-.313-48.331z" class="prefix__cls-7" transform="translate(-225.709 -228.894)"/></g></g></g></g></svg>