<svg xmlns="http://www.w3.org/2000/svg" width="115.598" height="111.056" viewBox="0 0 115.598 111.056"><defs><style>.prefix__cls-1{fill:#501c9c}.prefix__cls-2{fill:#7b41d2}.prefix__cls-3{fill:#d9bfff}.prefix__cls-5{fill:#322920}.prefix__cls-9{fill:#9957fc}.prefix__cls-10{fill:#c0c8d4}.prefix__cls-13{fill:#fff}</style></defs><g id="prefix__Group_6286" data-name="Group 6286" transform="translate(-312.541 -306.92)"><g id="prefix__Group_6293" data-name="Group 6293" transform="translate(391.686 371.876)"><g id="prefix__Group_6291" data-name="Group 6291"><path id="prefix__Path_29750" d="M373.432 346.723L370 353.152l-.529.991-3.775 6.034s-2.017-1.252-3.591-2.223l-.458-.282-.023-.012a4.139 4.139 0 01-1.365-3.475 8.973 8.973 0 01.106-1.366 12.966 12.966 0 011.682-4.55 10.809 10.809 0 013.473-3.736 3.781 3.781 0 013.405-.568c.149.1.332.219.534.353 1.435.914 3.973 2.405 3.973 2.405z" class="prefix__cls-1" data-name="Path 29750" transform="translate(-360.255 -343.767)"/></g><path id="prefix__Path_29756" d="M373.187 349.123a12.5 12.5 0 01-5.263 9.648c-2.906 1.782-5.262.354-5.262-3.189a12.494 12.494 0 015.262-9.648c2.906-1.782 5.263-.356 5.263 3.189z" class="prefix__cls-1" data-name="Path 29756" transform="translate(-358.669 -342.7)"/><path id="prefix__Path_29757" d="M373.013 349.215a12.243 12.243 0 01-5.159 9.456c-2.848 1.747-5.157.347-5.157-3.125a12.244 12.244 0 015.157-9.456c2.846-1.75 5.159-.35 5.159 3.125z" class="prefix__cls-2" data-name="Path 29757" transform="translate(-358.646 -342.571)"/><path id="prefix__Path_29762" d="M369.351 349.115a6.316 6.316 0 01-2.661 4.878c-1.359.832-2.478.277-2.639-1.229a3.561 3.561 0 01-.02-.384 6.377 6.377 0 011.347-3.647 4.948 4.948 0 011.312-1.229c1.47-.904 2.661-.178 2.661 1.611z" class="prefix__cls-3" data-name="Path 29762" transform="translate(-357.768 -341.213)"/><path id="prefix__Path_29764" d="M367.974 349.13a4.8 4.8 0 01-2.024 3.709c-.872.534-1.616.319-1.9-.451a3.56 3.56 0 01-.02-.384 6.377 6.377 0 011.347-3.647 3.287 3.287 0 01.572-.453c1.119-.685 2.025-.136 2.025 1.226z" class="prefix__cls-1" data-name="Path 29764" transform="translate(-357.768 -340.837)"/></g><path id="prefix__Path_29773" d="M346.386 367.012l-3.4-2.73-10.243 7.639-.658-8.466 8.5-5.2 3.267-.046 3.328 2.61z" class="prefix__cls-1" data-name="Path 29773" transform="translate(12.876 39.125)"/><g id="prefix__Group_6299" data-name="Group 6299" transform="translate(343.881 401.123)"><g id="prefix__Group_6297" data-name="Group 6297"><path id="prefix__Path_29774" d="M344.614 363.315l-3.437 6.427-.529.992-3.775 6.032s-2.017-1.252-3.591-2.221l-.458-.282-.023-.012a4.144 4.144 0 01-1.365-3.474 8.97 8.97 0 01.108-1.366 12.918 12.918 0 011.68-4.55 10.8 10.8 0 013.475-3.735 3.767 3.767 0 013.4-.568l.534.353c1.441.911 3.981 2.404 3.981 2.404z" class="prefix__cls-1" data-name="Path 29774" transform="translate(-331.435 -360.359)"/><path id="prefix__Path_29775" d="M341.68 368.127l-1.075.659-3.475 2.13-5.63-3.453a12.918 12.918 0 011.68-4.55l7.954 4.881z" class="prefix__cls-1" data-name="Path 29775" transform="translate(-331.392 -358.41)"/><path id="prefix__Path_29776" d="M331.754 370.638a12.5 12.5 0 015.263-9.648z" data-name="Path 29776" transform="translate(-331.225 -359.877)" fill="#242726"/><g id="prefix__Group_6294" data-name="Group 6294" transform="translate(1.02 .627)"><path id="prefix__Path_29777" d="M337.313 361.482c1.564-.959 2.967-.989 3.931-.261.045.033.1.074.163.116a3.641 3.641 0 00-3.566.49 12.5 12.5 0 00-5.263 9.648 4.137 4.137 0 001.347 3.452 8.555 8.555 0 00-.333-.2c-.952-.576-1.541-1.819-1.541-3.593a12.491 12.491 0 015.262-9.652z" class="prefix__cls-1" data-name="Path 29777" transform="translate(-332.05 -360.714)"/></g><g id="prefix__Group_6295" data-name="Group 6295" transform="translate(1.974 1.216)"><path id="prefix__Path_29778" d="M337.888 361.816c1.563-.959 2.967-.989 3.931-.261.045.034.1.074.163.116a3.636 3.636 0 00-3.566.49 12.5 12.5 0 00-5.263 9.648 4.136 4.136 0 001.347 3.452 8.555 8.555 0 00-.333-.2c-.952-.576-1.541-1.819-1.541-3.593a12.491 12.491 0 015.262-9.652z" class="prefix__cls-1" data-name="Path 29778" transform="translate(-332.625 -361.048)"/></g><g id="prefix__Group_6296" data-name="Group 6296" transform="translate(2.928 1.805)"><path id="prefix__Path_29779" d="M338.463 362.15c1.563-.959 2.968-.989 3.931-.261.045.033.1.074.163.116a3.636 3.636 0 00-3.566.49 12.493 12.493 0 00-5.263 9.648 4.139 4.139 0 001.347 3.452 8.555 8.555 0 00-.333-.2c-.952-.576-1.541-1.821-1.541-3.593a12.491 12.491 0 015.262-9.652z" class="prefix__cls-1" data-name="Path 29779" transform="translate(-333.2 -361.382)"/></g></g><path id="prefix__Path_29780" d="M344.367 365.715a12.491 12.491 0 01-5.262 9.646c-2.908 1.784-5.263.356-5.263-3.189a12.49 12.49 0 015.263-9.646c2.906-1.782 5.262-.356 5.262 3.189z" class="prefix__cls-1" data-name="Path 29780" transform="translate(-329.849 -359.291)"/><path id="prefix__Path_29781" d="M344.193 365.8a12.244 12.244 0 01-5.157 9.456c-2.85 1.749-5.159.349-5.159-3.126a12.246 12.246 0 015.159-9.456c2.848-1.741 5.157-.342 5.157 3.126z" class="prefix__cls-2" data-name="Path 29781" transform="translate(-329.826 -359.162)"/><path id="prefix__Path_29782" d="M339.264 373.724c-2.906 1.784-5.262.356-5.262-3.187a12.517 12.517 0 012.442-6.917 12.6 12.6 0 00-2.6 7.134c0 3.545 2.355 4.973 5.263 3.189a10.131 10.131 0 002.818-2.729 9.919 9.919 0 01-2.661 2.51z" class="prefix__cls-1" data-name="Path 29782" transform="translate(-329.849 -357.872)"/><path id="prefix__Path_29784" d="M341.532 365.761a7.679 7.679 0 01-3.233 5.928c-1.787 1.1-3.235.219-3.235-1.96a7.679 7.679 0 013.236-5.929c1.784-1.094 3.232-.218 3.232 1.961z" class="prefix__cls-3" data-name="Path 29784" transform="translate(-329.044 -358.092)"/><path id="prefix__Path_29786" d="M340.532 365.708a6.315 6.315 0 01-2.661 4.876c-1.36.834-2.48.279-2.641-1.229a3.506 3.506 0 01-.02-.383 6.372 6.372 0 011.347-3.647 4.951 4.951 0 011.314-1.229c1.469-.902 2.661-.18 2.661 1.612z" class="prefix__cls-1" data-name="Path 29786" transform="translate(-328.948 -357.804)"/></g><g id="prefix__Group_6301" data-name="Group 6301" transform="translate(313.16 342.487)"><g id="prefix__Group_6300" data-name="Group 6300"><path id="prefix__Path_29797" d="M344.676 342.811l-19.152 11.751v7.761l19.152-11.752z" class="prefix__cls-5" data-name="Path 29797" transform="translate(-304.607 -315.108)"/><path id="prefix__Path_29798" d="M367.217 335.511l-33.3 20.434v.356l33.3-20.434z" class="prefix__cls-5" data-name="Path 29798" transform="translate(-299.081 -320.677)"/><path id="prefix__Path_29799" d="M339.434 377.589l-.425-3.624-25.985-15.944.425 3.624z" class="prefix__cls-2" data-name="Path 29799" transform="translate(-312.842 -303.505)"/><path id="prefix__Path_29800" d="M312.914 354.815l.181 5.652 8.609 6.253a44.158 44.158 0 005.283 3.295l12.094 6.4-.181-5.65-1.868-1.146-22.27-13.665z" class="prefix__cls-1" data-name="Path 29800" transform="translate(-312.914 -305.951)"/><path id="prefix__Path_29801" d="M357.547 339.256a12.566 12.566 0 01-5.295 9.7c-2.924 1.795-5.293.358-5.293-3.208a12.561 12.561 0 015.293-9.7c2.924-1.793 5.295-.358 5.295 3.208z" data-name="Path 29801" transform="translate(-290.487 -320.856)" fill="#3a3e40"/><path id="prefix__Path_29802" d="M330.633 356.895l-.559.342-1.042-4.493c-.541-1.333-2.491-1.229-3.959-.328l-2.36 1.447a8 8 0 00-2.873 3.522l-.518 1.163c-.043.1-.086.2-.131.3a10.6 10.6 0 00-.773 2.468l-.171 3.178-.848.52.411-2.787s.861-5.031 3.442-7.735a27.993 27.993 0 014.986-4.151s3.424-.682 3.691.365.704 6.189.704 6.189z" class="prefix__cls-5" data-name="Path 29802" transform="translate(-309.959 -309.531)"/><path id="prefix__Path_29803" d="M327.365 348.632v9.251l-.8.49-1.042-4.493c-.4-1-1.6-1.19-2.793-.846v-1.557z" class="prefix__cls-5" data-name="Path 29803" transform="translate(-306.448 -310.668)"/><path id="prefix__Path_29804" d="M340.268 351l-12.977 7.962v-6.384l12.977-7.962z" class="prefix__cls-5" data-name="Path 29804" transform="translate(-303.444 -313.733)"/><path id="prefix__Path_29805" d="M352.947 344.415l-25.985-15.943v35.557l25.985 15.943z" class="prefix__cls-3" data-name="Path 29805" transform="translate(-303.66 -326.047)"/><path id="prefix__Path_29807" d="M362.99 333.739l5.931-3.639v-1.586l-5.931 3.639z" class="prefix__cls-5" data-name="Path 29807" transform="translate(-279.927 -326.014)"/><path id="prefix__Path_29808" d="M367.067 332.7l-2.157 1.323-4.835-1.051v-1.585l6.992-4.289z" data-name="Path 29808" transform="translate(-281.847 -327.096)" fill="#8595ad"/></g></g><g id="prefix__Group_6304" data-name="Group 6304" transform="translate(338.898 322.863)"><g id="prefix__Group_6303" data-name="Group 6303"><path id="prefix__Path_29810" d="M348.07 347.171l1.521 15.906v13.135l-.8.492-1.042-4.494c-.406-1-1.6-1.192-2.795-.846a4.792 4.792 0 00-1.166.517l-2.36 1.449a8 8 0 00-2.873 3.52l-.518 1.163-.129.3a10.532 10.532 0 00-.775 2.468l-.171 3.18-.848.518-5.6 3.111-1.236-.455-.365-3.108-.06-.517-.182-5.65-.241-.606.936-4.865 3.6-17.136.872-1.659 13.184-8.09.664.814z" class="prefix__cls-2" data-name="Path 29810" transform="translate(-328.428 -293.429)"/><path id="prefix__Path_29811" d="M337.717 364.116a10.532 10.532 0 00-.775 2.468l-.171 3.18-.848.518-5.6 3.111-1.236-.455-.365-3.108c.27-.233.552-.471.849-.719z" class="prefix__cls-1" data-name="Path 29811" transform="translate(-328.237 -279.232)"/><path id="prefix__Path_29812" d="M336.626 368.247l-6.445 3.629-1.236-.453.883-1.147 6.8-4.17z" class="prefix__cls-1" data-name="Path 29812" transform="translate(-328.092 -277.715)"/><path id="prefix__Path_29813" d="M332.128 371.929l1.36.964.022.358.523.435.668-1.343a10.6 10.6 0 01.773-2.468c.045-.1.088-.2.131-.3l.518-1.163a8 8 0 012.875-3.52l2.359-1.447a4.7 4.7 0 011.244-.539c.033-.009.068-.019.1-.026s.058-.016.086-.021a3.045 3.045 0 011.465 0l1.294-1.615 2.7-3.365-1.086-1.31-6.832 3.908s-4.228 3.106-5.8 5.311a18.319 18.319 0 00-2.175 5.248 17.02 17.02 0 00-.225.893z" class="prefix__cls-3" data-name="Path 29813" transform="translate(-325.995 -284.991)"/><path id="prefix__Path_29814" d="M328.675 377.861l2.581-2.116 18.335-12.668-1.522-15.905-.379-.852-.663-.814-13.184 8.089-.872 1.659-3.6 17.136-.936 4.866z" class="prefix__cls-2" data-name="Path 29814" transform="translate(-328.429 -293.428)"/><path id="prefix__Path_29815" d="M347.4 346.067l-13.882 9.158-3.206 15.988-.64 1.923-.559 3.936-.44.361-.241-.605.935-4.866.5-.842 3.1-16.293z" class="prefix__cls-3" data-name="Path 29815" transform="translate(-328.428 -293)"/><path id="prefix__Path_29817" d="M331.545 366.1a32.1 32.1 0 003.468-2.306 45.434 45.434 0 015.15-6.062c.6-.624 1.211-1.269 1.3-1.416.292-.534-.224-4.594-.393-5.928-.031-.254-.061-.481-.085-.673s-.108-.407-.272-.407a.407.407 0 00-.194.063c-.5.3-1.125.656-1.786 1.035-1.7.97-4.85 2.771-5.084 3.3-.32.811-1.491 7.127-1.921 9.525z" class="prefix__cls-3" data-name="Path 29817" transform="translate(-326.379 -290.528)"/><path id="prefix__Path_29818" d="M404.546 315.964l-61.919 37.992v35.557l61.919-37.992z" class="prefix__cls-1" data-name="Path 29818" transform="translate(-319.079 -315.964)"/><path id="prefix__Path_29819" d="M402.113 317.928l-58.436 35.854v29.749l58.436-35.855z" class="prefix__cls-2" data-name="Path 29819" transform="translate(-318.387 -314.465)"/><path id="prefix__Path_29821" d="M378.655 342.783l5.931-3.639v-1.586l-5.931 3.639z" class="prefix__cls-1" data-name="Path 29821" transform="translate(-295.345 -299.491)"/><path id="prefix__Path_29822" d="M382.732 341.743l-2.157 1.324-4.835-1.052v-1.585l6.992-4.29z" class="prefix__cls-1" data-name="Path 29822" transform="translate(-297.265 -300.573)"/><path id="prefix__Path_29824" d="M330.67 367.482l-.87.534-.88.847-.489 2.157.618.61 1.472-.8.549-.663z" class="prefix__cls-1" data-name="Path 29824" transform="translate(-328.431 -276.664)"/><path id="prefix__Path_29825" d="M333.065 374.06l.848-.52.032-.576.139-2.6a10.6 10.6 0 01.773-2.468c.045-.1.088-.2.131-.3l.518-1.163a8 8 0 012.875-3.52l2.359-1.447a4.152 4.152 0 01.506-.27l.008-.005a4.435 4.435 0 01.73-.265c.033-.009.068-.019.1-.026s.058-.016.086-.021a3.045 3.045 0 011.465 0 1.541 1.541 0 011.063.917l1.042 4.492.557-.34s-.436-5.14-.7-6.189c-.065-.257-.318-.409-.665-.494l-.025-.005a9.412 9.412 0 00-3 .13h-.005a27.921 27.921 0 00-4.984 4.153c-2.583 2.7-3.442 7.735-3.442 7.735z" data-name="Path 29825" transform="translate(-325.378 -283.007)" fill="#261d14"/><path id="prefix__Path_29826" d="M338.394 360.8v1.558l.078-.021c.035-.011.07-.019.1-.026s.058-.016.086-.021a3.044 3.044 0 011.465 0 1.541 1.541 0 011.063.917l1.042 4.492 1.886-1.135v-9.253L338.4 360.8z" class="prefix__cls-2" data-name="Path 29826" transform="translate(-321.867 -284.424)"/></g></g><path id="prefix__Path_29827" d="M314.026 357.108l6.182 4.733a43.937 43.937 0 007.051 4.414l9.085 4.546-.045-1.678-22.27-13.665z" class="prefix__cls-3" data-name="Path 29827" transform="translate(.978 37.026)"/><path id="prefix__Path_29828" d="M312.768 356.18l.241.6 7.745 5.932a44.076 44.076 0 007.053 4.414l11.12 5.563.068.035-.242-.606.936-4.865-26.107-15.025z" class="prefix__cls-3" data-name="Path 29828" transform="translate(.15 34.566)"/><path id="prefix__Path_29829" d="M312.769 354.472l.241.6 7.745 5.932a44.076 44.076 0 007.053 4.414l11.12 5.563-.174-.571s-10.941-5.047-14.965-7.839c-3.989-2.771-10.911-8.014-11.02-8.099z" class="prefix__cls-1" data-name="Path 29829" transform="translate(.15 36.274)"/><path id="prefix__Path_29830" d="M313.448 358.581l8.3 5.957a44.359 44.359 0 004.759 2.979l12.6 6.8.984-.735 1.047.829-.869.534-.881.846-.488 2.158.617.61-12.26-6.706a61.385 61.385 0 01-6.751-4.284l-7.345-5.357-.619-.608.005-2.362.881-.848z" class="prefix__cls-3" data-name="Path 29830" transform="translate(0 39.268)"/><path id="prefix__Path_29831" d="M388.88 306.92l25.985 15.943-61.919 37.992-25.985-15.943z" class="prefix__cls-9" data-name="Path 29831" transform="translate(9.5)"/><path id="prefix__Path_29832" d="M331.4 337.52l22.94 14.076-13.184 8.09-.872 1.659-3.137-1.315a68.01 68.01 0 01-19.7-12.664l-.1-.1.871-1.659z" class="prefix__cls-1" data-name="Path 29832" transform="translate(3.161 23.343)"/><g id="prefix__Group_6311" data-name="Group 6311" transform="translate(325.703 363.057)"><g id="prefix__Group_6305" data-name="Group 6305" transform="translate(15.143 9.244)"><path id="prefix__Path_29833" d="M342.677 344.152l-13 7.47-.071.11.52.335 12.664-7.688z" class="prefix__cls-3" data-name="Path 29833" transform="translate(-329.605 -343.9)"/><path id="prefix__Path_29834" d="M342.24 344.009l-12.592 7.722.338.218 12.663-7.687z" class="prefix__cls-3" data-name="Path 29834" transform="translate(-329.577 -344.009)"/></g><g id="prefix__Group_6306" data-name="Group 6306" transform="translate(12.114 7.396)"><path id="prefix__Path_29835" d="M340.851 343.1l-13 7.47-.071.11.52.334 12.663-7.687z" class="prefix__cls-10" data-name="Path 29835" transform="translate(-327.779 -342.851)"/><path id="prefix__Path_29836" d="M340.414 342.96l-12.592 7.722.338.217 12.663-7.687z" class="prefix__cls-3" data-name="Path 29836" transform="translate(-327.751 -342.96)"/></g><g id="prefix__Group_6307" data-name="Group 6307" transform="translate(9.086 5.547)"><path id="prefix__Path_29837" d="M339.025 342.054l-13 7.47-.07.11.52.334 12.663-7.688z" class="prefix__cls-10" data-name="Path 29837" transform="translate(-325.954 -341.802)"/><path id="prefix__Path_29838" d="M338.588 341.911L326 349.633l.339.217L339 342.163z" class="prefix__cls-3" data-name="Path 29838" transform="translate(-325.926 -341.911)"/></g><g id="prefix__Group_6308" data-name="Group 6308" transform="translate(6.057 3.698)"><path id="prefix__Path_29839" d="M337.2 341.005l-13 7.47-.071.11.52.334 12.663-7.687z" class="prefix__cls-10" data-name="Path 29839" transform="translate(-324.128 -340.753)"/><path id="prefix__Path_29840" d="M336.762 340.862l-12.591 7.722.338.217 12.663-7.687z" class="prefix__cls-3" data-name="Path 29840" transform="translate(-324.1 -340.862)"/></g><g id="prefix__Group_6309" data-name="Group 6309" transform="translate(3.029 1.849)"><path id="prefix__Path_29841" d="M335.374 339.956l-13 7.47-.07.11.52.334 12.663-7.687z" class="prefix__cls-10" data-name="Path 29841" transform="translate(-322.302 -339.705)"/><path id="prefix__Path_29842" d="M334.936 339.814l-12.592 7.722.338.217 12.664-7.687z" class="prefix__cls-3" data-name="Path 29842" transform="translate(-322.274 -339.814)"/></g><g id="prefix__Group_6310" data-name="Group 6310"><path id="prefix__Path_29843" d="M333.548 338.908l-13 7.47-.07.11.52.335 12.663-7.687z" class="prefix__cls-3" data-name="Path 29843" transform="translate(-320.476 -338.656)"/><path id="prefix__Path_29844" d="M333.11 338.765l-12.592 7.722.338.218 12.663-7.687z" class="prefix__cls-3" data-name="Path 29844" transform="translate(-320.448 -338.765)"/></g></g><path id="prefix__Path_29845" d="M331.049 337.52l-12.349 8.049a49.248 49.248 0 009.549 7.317c5.205 2.916 12.4 6.154 12.4 6.154l13.341-7.44-13.184 8.09-1.291.351-13.015-6.448-8.307-6.746-.333-1.238z" class="prefix__cls-3" data-name="Path 29845" transform="translate(3.507 23.343)"/><path id="prefix__Path_29846" d="M318.21 342.109l.106.1a68.052 68.052 0 0019.7 12.666l3.137 1.313-.872 1.659-3.137-1.315a68.009 68.009 0 01-19.7-12.664l-.1-.1z" class="prefix__cls-2" data-name="Path 29846" transform="translate(3.161 26.843)"/><path id="prefix__Path_29847" d="M320.027 343.05l.1.1a68.01 68.01 0 0019.7 12.664l3.137 1.315-3.1 16.294-.5.843-14.479-6.253-11.628-8.772.61-.665z" data-name="Path 29847" transform="translate(.473 27.561)" fill="#c2cad6"/><path id="prefix__Path_29848" d="M339.864 366.7l-14.655-7.386-11.339-7.46-.61.665 5.774 4.356a60.735 60.735 0 0012.5 7.288l7.829 3.381z" class="prefix__cls-1" data-name="Path 29848" transform="translate(.473 34.279)"/><path id="prefix__Path_29849" d="M319.784 343.05l-6.157 15.523 4.965 3.563a78.511 78.511 0 0012.786 7.466l8.244 3.818 3.1-16.294-3.137-1.315a68.01 68.01 0 01-19.7-12.664z" class="prefix__cls-1" data-name="Path 29849" transform="translate(.715 27.561)"/><path id="prefix__Path_29850" d="M313.768 358.5l6.258-15.45.265.326-6.3 15.28-.588.693-.148-.112z" data-name="Path 29850" transform="translate(.473 27.561)" fill="#e0e4ea"/><path id="prefix__Path_29851" d="M313.9 358.151l4.717 3.386a78.3 78.3 0 0012.728 7.43l7.826 3.626.591-3.1 1.863-9.777.5-2.628-2.853-1.193a67.775 67.775 0 01-14.257-8.141q-2.234-1.663-4.346-3.515-.465-.407-.926-.827l-1.186 2.992z" class="prefix__cls-3" data-name="Path 29851" transform="translate(.895 27.839)"/><path id="prefix__Path_29852" d="M315.529 355.56l2.037-1.25 1.792-2.193 2.153-2.385 2.433-2.334q-2.234-1.663-4.346-3.515l-.795.836-3.007 7.37-.156 1.1z" class="prefix__cls-3" data-name="Path 29852" transform="translate(1.968 28.197)"/><path id="prefix__Path_29853" d="M328.58 364.125l.007.208.04 1.22.134 4.222.707-.508a1.149 1.149 0 00.464-1l-.247-4.52a.231.231 0 00-.368-.187z" class="prefix__cls-1" data-name="Path 29853" transform="translate(10.566 43.171)"/><path id="prefix__Path_29854" d="M327.595 363.513v1.279l1.679.761-.039-1.22-.007.005z" class="prefix__cls-13" data-name="Path 29854" transform="translate(9.917 43.171)"/><path id="prefix__Path_29855" d="M328.584 364.131l.04 1.22.554-.37a.628.628 0 00.269-.568l-.027-.356a.281.281 0 00-.448-.222z" class="prefix__cls-3" data-name="Path 29855" transform="translate(10.568 43.373)"/><path id="prefix__Path_29856" d="M312.918 354.949l.046 1.425 1.583 1V356.1z" class="prefix__cls-13" data-name="Path 29856" transform="translate(.249 36.638)"/><path id="prefix__Path_29865" d="M339.386 375.426l-12-6.665a92.91 92.91 0 01-9.04-5.727l-5.8-4.157-.005 2.362 11.089 7.885 15.269 8.46z" class="prefix__cls-3" data-name="Path 29865" transform="translate(0 39.634)"/><path id="prefix__Path_29866" d="M324.1 367.307c-3.78-2.3-11.552-7.98-11.552-7.98v-.449l5.8 4.157a92.91 92.91 0 009.04 5.727l12 6.665-.488 2.158.179-1.932s-11.203-6.046-14.979-8.346z" data-name="Path 29866" transform="translate(.002 39.634)" fill="#f7f6f5"/><path id="prefix__Path_29867" d="M338.9 376.562l.617.61-12.26-6.706a61.384 61.384 0 01-6.751-4.284l-7.345-5.357-.619-.608 11.088 7.883z" class="prefix__cls-2" data-name="Path 29867" transform="translate(0 40.657)"/><path id="prefix__Path_29872" d="M333.065 375.477l.848-.52.032-.576.139-2.6a10.6 10.6 0 01.773-2.468c.045-.1.088-.2.131-.3l.518-1.163a8 8 0 012.875-3.52l2.359-1.447a4.157 4.157 0 01.506-.27l.008-.005.652-.346 3-1.588 2.722-1.442v-1.918l-5.718 3.49h-.005a27.921 27.921 0 00-4.984 4.153c-2.583 2.7-3.442 7.735-3.442 7.735z" class="prefix__cls-2" data-name="Path 29872" transform="translate(13.52 38.438)"/><path id="prefix__Path_29873" d="M316.709 346.406l3.623 2.986a78.166 78.166 0 0012.728 7.43l6.715 2.9.5-2.628-2.853-1.193a67.775 67.775 0 01-14.257-8.141q-2.234-1.663-4.346-3.515-.465-.407-.926-.827z" class="prefix__cls-1" data-name="Path 29873" transform="translate(2.746 27.839)"/><path id="prefix__Path_29875" d="M345.889 346.32l-14.719 8.934.872-1.659 13.184-8.089z" class="prefix__cls-3" data-name="Path 29875" transform="translate(12.271 29.434)"/><path id="prefix__Path_29879" d="M388.88 306.92l-59.954 37.992 24.02 14.644 61.919-36.692-61.919 37.992-25.985-15.943z" class="prefix__cls-9" data-name="Path 29879" transform="translate(9.5)"/><path id="prefix__Path_29880" d="M313.9 352.338l4.717 3.386a78.307 78.307 0 0012.728 7.43l7.826 3.626.591-3.1-14.111-7.139-7.919-5.507z" class="prefix__cls-2" data-name="Path 29880" transform="translate(.895 33.652)"/></g></svg>