<svg xmlns="http://www.w3.org/2000/svg" width="128.424" height="71.501" viewBox="0 0 128.424 71.501"><defs><style>.prefix__cls-1{fill:#d37d3d}.prefix__cls-3{fill:#d9bfff}.prefix__cls-4{fill:#9141fc}.prefix__cls-5{fill:#f49f4c}.prefix__cls-7{fill:#e58f48}</style></defs><g id="prefix__Group_6352" data-name="Group 6352" transform="translate(-64.391 -180.838)"><path id="prefix__Path_29927" d="M328.118 314.183a4.357 4.357 0 00.355 3.39c.981 1.356 5.412 4.875 5.412 4.875a3.405 3.405 0 01-2.982-.172 19.849 19.849 0 01-3.715-3.774 4.064 4.064 0 01.93-4.319z" class="prefix__cls-1" data-name="Path 29927" transform="translate(-171.709 -87.214)"/><g id="prefix__Group_6356" data-name="Group 6356" transform="translate(64.39 180.838)"><path id="prefix__Path_29928" d="M95.667 192.914l-8.436-4.3a5.249 5.249 0 00-7.04 2.284l-15.232 29.855a5.249 5.249 0 002.284 7.04l8.436 4.3a5.249 5.249 0 007.04-2.284l.457-.9-.134-.059 14.368-27.836.54-1.059a5.249 5.249 0 00-2.283-7.041z" data-name="Path 29928" transform="translate(-64.39 -185.55)" fill="#5b18c0"/><path id="prefix__Path_29929" d="M213.939 218.33c-3.707 3.707-9.878 4.828-16.61 5.159l2.048 3.8a2.687 2.687 0 01.273.737 2.335 2.335 0 01.053.535c-.015.98-.457 2.534-2.953 3.032a5.823 5.823 0 01-.889.1c-2.747.124-5.827-1.471-7.107-2.216a2.687 2.687 0 01-.949-.938l-1.35-2.233-.605-1a2.708 2.708 0 00-2.323-1.306h-5.056a22.408 22.408 0 00-4.193 2.117l-.207.126a58.471 58.471 0 00-7.4 5.3 4.124 4.124 0 00-1.239 1.013l-17.111 20.718-.2.239a4.132 4.132 0 00-.893 1.976 4.18 4.18 0 001.453 3.9l.542.447a4.137 4.137 0 002.287.933c-.4-.159-.608-.293-.5-.273.686.326 1.906-.118 3.132-1.1.219-.176.439-.368.656-.578s.608-.66 1.134-1.292c2.162-2.593 6.552-8.192 9.68-11.98 1.257-1.522 2.311-2.752 2.934-3.374a3.01 3.01 0 011.473-.957c1.162-.2 1.278 1.675 1.278 1.675s-.837 1.09-2.11 2.724c-.692.888-1.512 1.937-2.4 3.061-2.844 3.606-6.353 7.97-8.414 10.216-.282.307-.538.577-.761.8a4.187 4.187 0 00.914 5.369l.541.447a4.134 4.134 0 001.385.752c-.09-.059-.14-.1-.14-.1s2.675.428 4.168-.921c.034-.031.071-.057.1-.09.271-.27.839-.955 1.593-1.9 1.434-1.8 3.557-4.547 5.686-7.283 1.171-1.5 2.342-3 3.4-4.329a2.839 2.839 0 01.633.047 2.169 2.169 0 011.758 1.753 561.274 561.274 0 01-3.553 4.613c-1.954 2.507-3.913 4.961-5.358 6.632a22.774 22.774 0 01-1.655 1.775c-.028.025-.056.046-.084.07s-.036.071-.055.106a4.183 4.183 0 00.993 5.223l.761.629a4.151 4.151 0 002.787.944c-.452-.171-.685-.322-.572-.3.809.384 2.359-.3 3.787-1.68.351-.339 1.208-1.366 2.334-2.753 1.273-1.569 2.89-3.6 4.527-5.64.431-.537.862-1.075 1.289-1.6l.814-1.008a1.912 1.912 0 011.259 1.465 2.866 2.866 0 01.026 1.161c-.033.2-.08.4-.132.6-.192.24-.384.482-.578.722-.457.571-.916 1.14-1.37 1.7-1.479 1.823-2.9 3.535-4.025 4.8a4.141 4.141 0 001.275 4.509 4.086 4.086 0 001.638.817 5.852 5.852 0 003.1-1.776c.445-.43 1.7-1.964 3.3-3.945-.009-.016-.014-.033-.022-.049a3.723 3.723 0 01-.432-1.88v-.118a4.235 4.235 0 01.754-2.283 3.15 3.15 0 01.51-.6c.1-.092.193-.182.3-.266a4.218 4.218 0 013.7-.793l.735-.911a2.4 2.4 0 01.349.043c.026.005.05.013.076.02l.047-.027a4.267 4.267 0 01.143-1.972c.016-.052.035-.1.054-.153.028-.077.056-.154.089-.229.006-.013.009-.026.015-.038l.009-.012a4.166 4.166 0 01.863-1.265 4.232 4.232 0 015.75-.2l.574-.321a3.548 3.548 0 011-2.994l.947-.947a3.561 3.561 0 015.022 0l.031.031.71-.4a3.556 3.556 0 01.923-3.389l.947-.947a3.562 3.562 0 015.022 0l.311.311 8.7-4.862c-2.214-5.482-11.058-27.356-11.346-27.919z" class="prefix__cls-3" data-name="Path 29929" transform="translate(-118.535 -205.36)"/><g id="prefix__Group_6352-2" data-name="Group 6352" transform="translate(32.446 12.97)"><path id="prefix__Path_29930" d="M176.382 288.831c1.273-1.634 2.11-2.724 2.11-2.724s-.117-1.87-1.278-1.675a3.011 3.011 0 00-1.473.957c-.623.622-1.677 1.853-2.934 3.374-3.129 3.788-7.519 9.388-9.68 11.98-.527.632-.923 1.087-1.134 1.292s-.437.4-.656.578c-1.226.984-2.445 1.428-3.132 1.1-.106-.021.1.113.5.273a5.953 5.953 0 004.855-.117 4.631 4.631 0 00.862-.6c.113-.1.243-.223.384-.363.222-.22.479-.491.761-.8 2.061-2.246 5.571-6.609 8.414-10.216a517.742 517.742 0 002.401-3.059z" class="prefix__cls-4" data-name="Path 29930" transform="translate(-158.176 -261.554)"/><path id="prefix__Path_29931" d="M200.258 319.3a623.123 623.123 0 002.233-2.913 2.17 2.17 0 00-1.758-1.753 2.844 2.844 0 00-.633-.047 529.6 529.6 0 00-3.4 4.329c-2.129 2.736-4.251 5.487-5.686 7.283-.754.945-1.322 1.63-1.593 1.9-.033.033-.07.059-.1.09-1.493 1.35-4.168.921-4.168.921l.14.1c.7.463 3.952 2.391 6.451.353.033-.027.067-.052.1-.081s.056-.045.084-.07a22.8 22.8 0 001.655-1.775c1.444-1.671 3.4-4.126 5.358-6.632.44-.573.882-1.143 1.317-1.705z" class="prefix__cls-4" data-name="Path 29931" transform="translate(-175.819 -281.284)"/><path id="prefix__Path_29932" d="M229.077 344l.578-.722c.052-.2.1-.4.132-.6a2.866 2.866 0 00-.026-1.161 1.912 1.912 0 00-1.259-1.465l-.814 1.008c-.427.53-.858 1.067-1.289 1.6-1.637 2.041-3.254 4.072-4.527 5.64-1.126 1.387-1.983 2.414-2.334 2.753-1.428 1.381-2.978 2.064-3.787 1.68-.113-.022.12.129.572.3a5.583 5.583 0 005.648-.746 22.912 22.912 0 001.711-1.789c1.122-1.267 2.546-2.979 4.025-4.8.454-.56.912-1.129 1.37-1.698z" class="prefix__cls-4" data-name="Path 29932" transform="translate(-195.814 -297.94)"/><path id="prefix__Path_29933" d="M354.417 246.275l-.16-.314-.5-.975-6.257-12.275-7.336-14.381c.288.563 9.132 22.437 11.346 27.914l-8.7 4.862 1.811 1.811 10.238-5.787z" class="prefix__cls-3" data-name="Path 29933" transform="translate(-277.203 -218.33)"/><path id="prefix__Path_29934" d="M285.506 355.359l.179.222.039-.049-.484-.471c.092.094.182.193.266.298z" class="prefix__cls-5" data-name="Path 29934" transform="translate(-241.282 -307.758)"/><path id="prefix__Path_29935" d="M252.2 369.113c-1.595 1.981-2.852 3.515-3.3 3.945a5.852 5.852 0 01-3.1 1.776 1.32 1.32 0 01-.686-.1c-.4-.077 3.467 1.983 6.22-.446a33.822 33.822 0 002.622-2.837 19.407 19.407 0 01-1.485-1.886 4.181 4.181 0 01-.271-.452z" class="prefix__cls-4" data-name="Path 29935" transform="translate(-215.018 -316.949)"/><path id="prefix__Path_29936" d="M281.063 350.25a4.223 4.223 0 01-.32-1.058l-.047.027c-.026-.007-.05-.015-.076-.02a2.4 2.4 0 00-.349-.043l-.735.911a4.2 4.2 0 011.9 1.066l-.007-.006a6.133 6.133 0 01-.366-.877z" class="prefix__cls-5" data-name="Path 29936" transform="translate(-237.551 -303.896)"/><path id="prefix__Path_29937" d="M303.9 338.155s-.022-.045-.053-.122l-.03-.08-.006-.018a3.545 3.545 0 01-.2-.783l-.574.321c.074.065.149.128.219.2l.827.827a3.357 3.357 0 01-.179-.338z" class="prefix__cls-5" data-name="Path 29937" transform="translate(-252.921 -296.046)"/><path id="prefix__Path_29938" d="M325.637 324.7l-.71.4 1.845 1.844.253-.143-.464-.464a3.523 3.523 0 01-.924-1.637z" class="prefix__cls-5" data-name="Path 29938" transform="translate(-267.239 -287.904)"/></g><path id="prefix__Path_29939" d="M370.52 213.549l-15.232-29.859a5.249 5.249 0 00-7.04-2.284l-8.436 4.3a5.249 5.249 0 00-2.284 7.04l.54 1.059 7.336 14.381 6.262 12.275.657 1.289.437.856a5.249 5.249 0 007.039 2.284l8.436-4.3a5.249 5.249 0 002.285-7.041z" class="prefix__cls-4" data-name="Path 29939" transform="translate(-242.664 -180.838)"/><path id="prefix__Path_29940" d="M380.125 296.669l-.657-1.29.5.975z" data-name="Path 29940" transform="translate(-270.466 -255.754)" fill="#3e385a"/><g id="prefix__Group_6353" data-name="Group 6353" transform="translate(24.756 6.176)"><path id="prefix__Path_29941" d="M188.355 218.731a6.46 6.46 0 001.052.018c2.5-.5 2.938-2.052 2.953-3.032a2.334 2.334 0 00-.053-.534 2.123 2.123 0 01-.287.22l-1.507.961a1.907 1.907 0 01-2.624-.583l-1.364-2.146a.707.707 0 01.217-.976l3.164-2.013.062-.039-5.649-10.49a2.709 2.709 0 00-2.389-1.428h-15.207a2.729 2.729 0 00-1.383.378l-16.415 9.719a2.727 2.727 0 01-1.383.378h-1.092a2.729 2.729 0 00-.716.1 12.174 12.174 0 01-1.523-1.286l.941 1.521-1.173 3.582-8.032 24.532 5.028 2.809 17.112-20.722a4.125 4.125 0 011.239-1.013 58.473 58.473 0 017.4-5.3l.207-.126q-.574 0-1.149-.006c-.077-.017-2.9-.654 1.734-3.419 1.84-1.037 11.163-1.825 12.626.888a1.593 1.593 0 01.107.233 37.4 37.4 0 002.63 4.206c1.388 1.827 3.137 3.337 5.474 3.568z" class="prefix__cls-4" data-name="Path 29941" transform="translate(-135.948 -198.69)"/><path id="prefix__Path_29942" d="M335.868 312.418l-.081-.08-1.811-1.811-.311-.311a3.562 3.562 0 00-5.022 0l-.947.947a3.571 3.571 0 000 5.023l.464.464 1.739 1.738a3.562 3.562 0 005.022 0l.947-.947a3.562 3.562 0 000-5.023zm-7.811 1.415a1.974 1.974 0 01.632-2.142l1.391-1.121a1.906 1.906 0 012.672.287l.2.243.175.218a.711.711 0 01-.107 1l-3.3 2.661a.711.711 0 01-1-.107l-.327-.407a1.942 1.942 0 01-.336-.632z" class="prefix__cls-4" data-name="Path 29942" transform="translate(-260.685 -270.956)"/><path id="prefix__Path_29943" d="M292.484 337.966a71.32 71.32 0 01-1.083-1.147 3.364 3.364 0 00.179.338l-.828-.827c-.07-.07-.145-.133-.219-.2a4.232 4.232 0 00-5.75.2 4.167 4.167 0 00-.863 1.265c.864-1.264 1.139-1.263 1.139-1.263a5.092 5.092 0 00.059 2.453 1.95 1.95 0 01.672-1.09l1.391-1.121a1.9 1.9 0 012.45.062 1.926 1.926 0 01.222.225l.371.461a.71.71 0 01-.107 1l-3.3 2.661a.715.715 0 01-.113.073l.112.118c2.374 2.484 7.172 6.785 7.179 6.791a4.169 4.169 0 001.47-.95 4.235 4.235 0 00.582-5.235 3.515 3.515 0 001.538.885c-.998-.496-3.608-3.139-5.101-4.699z" class="prefix__cls-4" data-name="Path 29943" transform="translate(-232.729 -287.909)"/><path id="prefix__Path_29944" d="M313.477 325.678l-1.845-1.844-.031-.031a3.561 3.561 0 00-5.022 0l-.947.947a3.548 3.548 0 00-1 2.994 3.61 3.61 0 00.143.611 3.453 3.453 0 01-.115-.626 4.211 4.211 0 011.34-3.347 2.191 2.191 0 00.18 2.482 1.959 1.959 0 01.707-1.26l1.391-1.121a1.938 1.938 0 012.673.287l.371.461a.711.711 0 01-.107 1l-3.036 2.447-.054.044c2.358 2.1 5.982 5.148 5.982 5.148a4.2 4.2 0 01-1.388.8 3.522 3.522 0 001.854-.974l.947-.947a3.561 3.561 0 000-5.022z" class="prefix__cls-4" data-name="Path 29944" transform="translate(-246.254 -279.842)"/><path id="prefix__Path_29945" d="M305.109 338.918c.018.064.037.123.054.172-.021-.056-.036-.115-.054-.172z" class="prefix__cls-7" data-name="Path 29945" transform="translate(-246.587 -290.406)"/><path id="prefix__Path_29946" d="M296.412 365.9a4.155 4.155 0 00.884.671c-.525-.436-1.656-1.5-2.8-2.588z" class="prefix__cls-7" data-name="Path 29946" transform="translate(-239.645 -306.801)"/><path id="prefix__Path_29947" d="M309.76 372.288a6.475 6.475 0 01-1.715.267 4.244 4.244 0 001.715-.267z" class="prefix__cls-7" data-name="Path 29947" transform="translate(-248.508 -312.231)"/><path id="prefix__Path_29948" d="M282.922 345.533a4.224 4.224 0 00.32 1.058 6.6 6.6 0 01-.272-1.085 4.348 4.348 0 01.1-1.945 4.267 4.267 0 00-.148 1.972z" class="prefix__cls-7" data-name="Path 29948" transform="translate(-232.04 -293.442)"/><path id="prefix__Path_29949" d="M273.612 379.1c-.024-.021-.05-.04-.073-.062.024.019.049.04.073.062z" class="prefix__cls-7" data-name="Path 29949" transform="translate(-225.939 -316.645)"/><path id="prefix__Path_29950" d="M282.434 382.071h.117c-.039 0-.078-.003-.117 0z" class="prefix__cls-7" data-name="Path 29950" transform="translate(-231.757 -318.627)"/><path id="prefix__Path_29951" d="M273.751 379.216a4.231 4.231 0 003 .99 4.772 4.772 0 01-3-.99z" class="prefix__cls-7" data-name="Path 29951" transform="translate(-226.078 -316.762)"/><path id="prefix__Path_29952" d="M273.2 378.721z" class="prefix__cls-7" data-name="Path 29952" transform="translate(-225.598 -316.329)"/><path id="prefix__Path_29953" d="M272.441 377.925a4.176 4.176 0 01-.305-.332 3.862 3.862 0 00.305.332z" class="prefix__cls-7" data-name="Path 29953" transform="translate(-225.021 -315.701)"/><path id="prefix__Path_29954" d="M273.623 353.188l-.179-.222c-.084-.1-.174-.2-.266-.3l-.069-.067a4.244 4.244 0 00-5.6-.272c-.1.084-.2.174-.3.266.161.258-.82 1.94-.212 2.921.086.139.257.371.484.663a90.376 90.376 0 001.863 2.282 347.635 347.635 0 003.016 3.546 4.185 4.185 0 002.217-.906 4.233 4.233 0 00.638-5.935zM269 356.494a.711.711 0 01-1-.107 1.917 1.917 0 01-.284-.5 1.97 1.97 0 01.582-2.266l.674-.543a1.919 1.919 0 012.671.287l.044.054a.711.711 0 01-.107 1z" class="prefix__cls-4" data-name="Path 29954" transform="translate(-221.53 -298.571)"/><path id="prefix__Path_29955" d="M265.577 368.971l.022.049a4.175 4.175 0 00.272.456c-.1-.152-.188-.3-.27-.459-.007-.017-.016-.03-.024-.046z" class="prefix__cls-7" data-name="Path 29955" transform="translate(-220.731 -310.062)"/><path id="prefix__Path_29956" d="M265.094 356.6a4.234 4.234 0 00-.754 2.283 4.6 4.6 0 01.754-2.283z" class="prefix__cls-7" data-name="Path 29956" transform="translate(-219.922 -301.969)"/></g><g id="prefix__Group_6354" data-name="Group 6354" transform="translate(18.328 15.463)"><path id="prefix__Path_29957" d="M204.247 357.738c.019-.035.035-.072.055-.106-.033.029-.067.054-.1.081z" class="prefix__cls-1" data-name="Path 29957" transform="translate(-174.162 -311.932)"/><path id="prefix__Path_29958" d="M173.742 338.824l.725.41a4.15 4.15 0 01.522-1.375c-.141.14-.271.263-.384.363a4.63 4.63 0 01-.863.602z" class="prefix__cls-1" data-name="Path 29958" transform="translate(-154.24 -299)"/><path id="prefix__Path_29959" d="M236.073 235.9c1.28.745 4.36 2.34 7.107 2.216a5.823 5.823 0 00.889-.1 6.46 6.46 0 01-1.052-.018c-2.338-.228-4.086-1.741-5.477-3.562a37.4 37.4 0 01-2.63-4.206 1.6 1.6 0 00-.107-.233c-1.463-2.713-10.785-1.925-12.626-.888-4.632 2.766-1.812 3.4-1.734 3.419l2.66-1.689a2.7 2.7 0 011.454-.422h6.284a2.708 2.708 0 012.321 1.312l.605 1 1.35 2.233a2.687 2.687 0 00.956.938z" class="prefix__cls-4" data-name="Path 29959" transform="translate(-184.183 -227.24)"/><path id="prefix__Path_29960" d="M267.726 360.715c-.719-.859-1.407-1.7-1.863-2.282a8.567 8.567 0 01-.484-.663c-.608-.981.373-2.663.212-2.921a3.149 3.149 0 00-.51.6 4.6 4.6 0 00-.754 2.283v.118a3.722 3.722 0 00.432 1.88l.025.046c.081.155.172.308.27.459a19.408 19.408 0 001.485 1.886c.161.192.325.388.489.591a4.593 4.593 0 003.68 1.548h.04a250.109 250.109 0 01-3.022-3.545z" class="prefix__cls-4" data-name="Path 29960" transform="translate(-213.482 -310.112)"/><path id="prefix__Path_29961" d="M286.2 343.5l-.112-.118a.711.711 0 01-.884-.181l-.327-.406a1.951 1.951 0 01-.425-1.28 2 2 0 01.05-.4 5.091 5.091 0 01-.059-2.453s-.275 0-1.139 1.263l-.009.012c-.006.012-.009.026-.015.038-.034.076-.061.153-.089.229-.018.051-.037.1-.054.153a4.348 4.348 0 00-.1 1.945 6.594 6.594 0 00.272 1.085 6.138 6.138 0 00.371.875l.007.006c.022.023.046.044.069.067l.484.47c.621.6 1.674 1.623 2.718 2.617 1.146 1.093 2.277 2.152 2.8 2.588l.008.006a2.877 2.877 0 001.879.545 6.474 6.474 0 001.715-.267h.014c-.006-.012-4.804-4.313-7.174-6.794z" class="prefix__cls-4" data-name="Path 29961" transform="translate(-225.682 -299.522)"/><path id="prefix__Path_29962" d="M308.211 331.766l-.211.17a.711.711 0 01-1-.108l-.327-.406a1.961 1.961 0 01-.414-1.492v-.019a2.191 2.191 0 01-.18-2.482 4.211 4.211 0 00-1.339 3.346 3.336 3.336 0 00.169.8l.006.018.03.08c.031.077.053.122.053.122l.006.007c.039.042.464.5 1.083 1.147 1.493 1.56 4.1 4.2 5.1 4.7a2.108 2.108 0 001.6.067 4.2 4.2 0 001.388-.8s-3.606-3.053-5.964-5.15z" class="prefix__cls-4" data-name="Path 29962" transform="translate(-239.915 -292.177)"/><path id="prefix__Path_29963" d="M132.061 225.535l-14.367 27.844.134.058-.457.9 10.366 5.86a4.132 4.132 0 01.893-1.976l.2-.239-5.028-2.81 8.032-24.531 1.166-3.586-.941-1.521z" class="prefix__cls-4" data-name="Path 29963" transform="translate(-117.37 -225.534)"/></g><g id="prefix__Group_6355" data-name="Group 6355" transform="translate(70.803 18.094)"><path id="prefix__Path_29964" d="M273.12 355.739a1.919 1.919 0 00-2.671-.287l-.674.543a1.97 1.97 0 00-.582 2.266 1.918 1.918 0 00.284.5.711.711 0 001 .107l2.584-2.082a.711.711 0 00.107-1z" class="prefix__cls-3" data-name="Path 29964" transform="translate(-269.051 -312.867)"/><path id="prefix__Path_29965" d="M292.024 338.856a1.923 1.923 0 00-.222-.225 1.9 1.9 0 00-2.45-.062l-1.391 1.121a1.949 1.949 0 00-.672 1.09 2 2 0 00-.05.4 1.951 1.951 0 00.425 1.28l.327.406a.715.715 0 001 .108l3.3-2.661a.71.71 0 00.107-1z" class="prefix__cls-3" data-name="Path 29965" transform="translate(-280.946 -301.823)"/><path id="prefix__Path_29966" d="M313.9 327.228a1.938 1.938 0 00-2.672-.287l-1.391 1.121a1.959 1.959 0 00-.707 1.26v.019a1.961 1.961 0 00.414 1.492l.327.406a.711.711 0 001 .108l.211-.17.054-.044 3.036-2.447a.711.711 0 00.107-1z" class="prefix__cls-3" data-name="Path 29966" transform="translate(-295.247 -294.218)"/><path id="prefix__Path_29967" d="M335.576 313.156l-.175-.218-.2-.243a1.906 1.906 0 00-2.672-.287l-1.391 1.121a1.974 1.974 0 00-.632 2.142 1.944 1.944 0 00.334.629l.327.406a.711.711 0 001 .107l3.3-2.661a.711.711 0 00.109-.996z" class="prefix__cls-3" data-name="Path 29967" transform="translate(-309.186 -284.711)"/><path id="prefix__Path_29968" d="M285.924 238.9l1.507-.961a2.126 2.126 0 00.287-.22 2.688 2.688 0 00-.273-.737l-2.048-3.8-.019-.035-.062.039-3.164 2.013a.707.707 0 00-.217.976l1.364 2.146a1.907 1.907 0 002.625.579z" class="prefix__cls-3" data-name="Path 29968" transform="translate(-277.406 -233.139)"/></g></g></g></svg>