<svg xmlns="http://www.w3.org/2000/svg" width="81.425" height="107.845" viewBox="0 0 81.425 107.845"><defs><linearGradient id="prefix__linear-gradient" x2="1" y1=".5" y2=".5" gradientUnits="objectBoundingBox"><stop offset=".032" stop-color="#ffd01f"/><stop offset="1" stop-color="#e79f03"/></linearGradient><style>.prefix__cls-1{fill:#5b18c0}.prefix__cls-2{fill:#9957fc}.prefix__cls-3,.prefix__cls-4{opacity:.48;mix-blend-mode:soft-light;isolation:isolate}.prefix__cls-4{opacity:.57}.prefix__cls-5{fill:url(#prefix__linear-gradient)}.prefix__cls-6{fill:#ffd74c}</style></defs><g id="prefix__Group_6350" data-name="Group 6350" transform="translate(-587.015 -83)"><g id="prefix__Group_6321" data-name="Group 6321" transform="translate(587.015 134.622)"><g id="prefix__Group_6315" data-name="Group 6315" transform="translate(0 9.234)"><path id="prefix__Path_29884" d="M598.746 204.593c15.768 9.3 41.707 9.558 57.642.578 8.153-4.594 12.175-10.756 12.05-16.925-.025-1.177 0-9.234 0-9.234s-5.559-3.461-11.713-7.1c-15.749-9.313-41.689-9.574-57.643-.578-7.133 4.022-12.064 7.367-12.064 7.367s-.013 8.777 0 9.547c.114 5.895 4.018 11.798 11.728 16.345z" class="prefix__cls-1" data-name="Path 29884" transform="translate(-587.015 -164.753)"/></g><path id="prefix__Path_29885" d="M598.747 192.188c15.768 9.3 41.707 9.558 57.642.578s16.088-23.947.339-33.261-41.689-9.574-57.643-.578-16.105 23.964-.338 33.261z" class="prefix__cls-2" data-name="Path 29885" transform="translate(-587.017 -152.348)"/><path id="prefix__Path_29886" d="M630.761 193.674c-9.749 0-19.127-2.1-25.725-6.135-5.176-3.162-8.124-6.948-8.092-10.57s3.062-7.412 8.307-10.476c6.437-3.761 15.156-5.806 24.551-5.806 9.747 0 19.115 2.328 25.7 6.365 5.176 3.171 8.122 7.077 8.086 10.7s-3.058 7.248-8.291 10.3c-6.428 3.753-15.14 5.614-24.535 5.614z" class="prefix__cls-3" data-name="Path 29886" transform="translate(-589.553 -154.479)"/><path id="prefix__Path_29887" d="M605.251 169.267c6.437-3.761 15.156-5.808 24.551-5.808 9.747 0 19.115 2.328 25.7 6.365 4.489 2.75 7.3 6.052 7.941 9.246a6.845 6.845 0 00.145-1.313c.036-3.627-2.91-7.533-8.086-10.7-6.587-4.037-15.956-6.365-25.7-6.365-9.4 0-18.114 2.046-24.551 5.807-5.245 3.065-8.273 6.853-8.307 10.48a6.926 6.926 0 00.145 1.445c.658-3.213 3.553-6.465 8.162-9.157z" class="prefix__cls-3" data-name="Path 29887" transform="translate(-589.553 -154.48)"/><g id="prefix__Group_6320" data-name="Group 6320" transform="translate(20.408 11.921)"><g id="prefix__Group_6316" class="prefix__cls-4" data-name="Group 6316" transform="translate(0 .744)"><path id="prefix__Path_29888" d="M646.475 179.294a2.435 2.435 0 00-.222-.956 6.763 6.763 0 00-.7-1.251 9.585 9.585 0 00-1.188-1.38 11.329 11.329 0 00-1.685-1.341l-6.925 3.968.542.467a27.939 27.939 0 012.492 2.557 6.255 6.255 0 011.308 2.256 2.634 2.634 0 01-.233 2.038 5.411 5.411 0 01-2.133 1.9 11.122 11.122 0 01-3.694 1.348 14.542 14.542 0 01-3.956.121 18.51 18.51 0 01-4.034-.884 23.117 23.117 0 01-3.858-1.705l-3.512 2.012-1.859-1.072 3.582-2.05a18.491 18.491 0 01-3.93-3.367 9.494 9.494 0 01-2.041-3.7l5.036-.786a3.1 3.1 0 00.266 1.156 8.062 8.062 0 00.84 1.525 12.809 12.809 0 001.419 1.705 14.586 14.586 0 002.009 1.7l6.928-3.966a4.354 4.354 0 00-.328-.324 4.182 4.182 0 01-.326-.324 25.652 25.652 0 01-2.3-2.465 4.953 4.953 0 01-1.069-2.063 2.452 2.452 0 01.325-1.8 5.2 5.2 0 011.922-1.644 11.746 11.746 0 013.522-1.315 15.49 15.49 0 013.9-.269 18.666 18.666 0 014.008.663 21.83 21.83 0 013.892 1.5l3.381-1.935 1.839 1.065-3.379 1.936a13.725 13.725 0 013.376 2.955 9.561 9.561 0 011.661 3zm-12.575-6.268q-1.408.8-1.065 1.812a7.421 7.421 0 001.938 2.545l6.594-3.774a10.274 10.274 0 00-4.144-1.3 5.885 5.885 0 00-3.323.717zm-.84 12.3q1.47-.843.977-1.994a9.89 9.89 0 00-2.132-2.789l-6.624 3.794a12.281 12.281 0 004.319 1.563 5.348 5.348 0 003.463-.578z" data-name="Path 29888" transform="translate(-614.43 -169.361)"/><path id="prefix__Path_29889" d="M646.475 179.294a2.435 2.435 0 00-.222-.956 6.763 6.763 0 00-.7-1.251 9.585 9.585 0 00-1.188-1.38 11.329 11.329 0 00-1.685-1.341l-6.925 3.968.542.467a27.939 27.939 0 012.492 2.557 6.255 6.255 0 011.308 2.256 2.634 2.634 0 01-.233 2.038 5.411 5.411 0 01-2.133 1.9 11.122 11.122 0 01-3.694 1.348 14.542 14.542 0 01-3.956.121 18.51 18.51 0 01-4.034-.884 23.117 23.117 0 01-3.858-1.705l-3.512 2.012-1.859-1.072 3.582-2.05a18.491 18.491 0 01-3.93-3.367 9.494 9.494 0 01-2.041-3.7l5.036-.786a3.1 3.1 0 00.266 1.156 8.062 8.062 0 00.84 1.525 12.809 12.809 0 001.419 1.705 14.586 14.586 0 002.009 1.7l6.928-3.966a4.354 4.354 0 00-.328-.324 4.182 4.182 0 01-.326-.324 25.652 25.652 0 01-2.3-2.465 4.953 4.953 0 01-1.069-2.063 2.452 2.452 0 01.325-1.8 5.2 5.2 0 011.922-1.644 11.746 11.746 0 013.522-1.315 15.49 15.49 0 013.9-.269 18.666 18.666 0 014.008.663 21.83 21.83 0 013.892 1.5l3.381-1.935 1.839 1.065-3.379 1.936a13.725 13.725 0 013.376 2.955 9.561 9.561 0 011.661 3zm-12.575-6.268q-1.408.8-1.065 1.812a7.421 7.421 0 001.938 2.545l6.594-3.774a10.274 10.274 0 00-4.144-1.3 5.885 5.885 0 00-3.323.717zm-.84 12.3q1.47-.843.977-1.994a9.89 9.89 0 00-2.132-2.789l-6.624 3.794a12.281 12.281 0 004.319 1.563 5.348 5.348 0 003.463-.578z" data-name="Path 29889" transform="translate(-614.43 -169.361)"/></g><g id="prefix__Group_6319" data-name="Group 6319"><g id="prefix__Group_6317" data-name="Group 6317"><path id="prefix__Path_29890" d="M646.475 178.294a2.435 2.435 0 00-.222-.956 6.762 6.762 0 00-.7-1.251 9.586 9.586 0 00-1.188-1.38 11.329 11.329 0 00-1.685-1.341l-6.925 3.968.542.467a27.941 27.941 0 012.492 2.557 6.255 6.255 0 011.308 2.256 2.634 2.634 0 01-.233 2.038 5.411 5.411 0 01-2.133 1.9 11.122 11.122 0 01-3.694 1.348 14.542 14.542 0 01-3.956.121 18.511 18.511 0 01-4.034-.884 23.12 23.12 0 01-3.858-1.705l-3.512 2.012-1.859-1.072 3.582-2.05a18.491 18.491 0 01-3.93-3.367 9.494 9.494 0 01-2.041-3.7l5.036-.786a3.1 3.1 0 00.266 1.156 8.062 8.062 0 00.84 1.525 12.808 12.808 0 001.419 1.705 14.586 14.586 0 002.009 1.7l6.928-3.966a4.354 4.354 0 00-.328-.324 4.18 4.18 0 01-.326-.324 25.654 25.654 0 01-2.3-2.465 4.953 4.953 0 01-1.069-2.063 2.452 2.452 0 01.325-1.8 5.2 5.2 0 011.922-1.644 11.746 11.746 0 013.522-1.315 15.491 15.491 0 013.9-.269 18.665 18.665 0 014.008.663 21.832 21.832 0 013.892 1.5l3.381-1.935 1.839 1.065-3.379 1.936a13.725 13.725 0 013.376 2.955 9.56 9.56 0 011.661 3zm-12.575-6.268q-1.408.8-1.065 1.812a7.421 7.421 0 001.938 2.545l6.594-3.774a10.274 10.274 0 00-4.144-1.3 5.885 5.885 0 00-3.323.717zm-.84 12.3q1.47-.843.977-1.994a9.891 9.891 0 00-2.132-2.789l-6.624 3.794a12.281 12.281 0 004.319 1.563 5.348 5.348 0 003.463-.578z" class="prefix__cls-5" data-name="Path 29890" transform="translate(-614.43 -168.361)"/></g><g id="prefix__Group_6318" data-name="Group 6318"><path id="prefix__Path_29891" d="M646.475 178.294a2.435 2.435 0 00-.222-.956 6.762 6.762 0 00-.7-1.251 9.586 9.586 0 00-1.188-1.38 11.329 11.329 0 00-1.685-1.341l-6.925 3.968.542.467a27.941 27.941 0 012.492 2.557 6.255 6.255 0 011.308 2.256 2.634 2.634 0 01-.233 2.038 5.411 5.411 0 01-2.133 1.9 11.122 11.122 0 01-3.694 1.348 14.542 14.542 0 01-3.956.121 18.511 18.511 0 01-4.034-.884 23.12 23.12 0 01-3.858-1.705l-3.512 2.012-1.859-1.072 3.582-2.05a18.491 18.491 0 01-3.93-3.367 9.494 9.494 0 01-2.041-3.7l5.036-.786a3.1 3.1 0 00.266 1.156 8.062 8.062 0 00.84 1.525 12.808 12.808 0 001.419 1.705 14.586 14.586 0 002.009 1.7l6.928-3.966a4.354 4.354 0 00-.328-.324 4.18 4.18 0 01-.326-.324 25.654 25.654 0 01-2.3-2.465 4.953 4.953 0 01-1.069-2.063 2.452 2.452 0 01.325-1.8 5.2 5.2 0 011.922-1.644 11.746 11.746 0 013.522-1.315 15.491 15.491 0 013.9-.269 18.665 18.665 0 014.008.663 21.832 21.832 0 013.892 1.5l3.381-1.935 1.839 1.065-3.379 1.936a13.725 13.725 0 013.376 2.955 9.56 9.56 0 011.661 3zm-12.575-6.268q-1.408.8-1.065 1.812a7.421 7.421 0 001.938 2.545l6.594-3.774a10.274 10.274 0 00-4.144-1.3 5.885 5.885 0 00-3.323.717zm-.84 12.3q1.47-.843.977-1.994a9.891 9.891 0 00-2.132-2.789l-6.624 3.794a12.281 12.281 0 004.319 1.563 5.348 5.348 0 003.463-.578z" class="prefix__cls-6" data-name="Path 29891" transform="translate(-614.43 -168.361)"/></g></g></g></g><g id="prefix__Group_6328" data-name="Group 6328" transform="translate(587.015 121.717)"><g id="prefix__Group_6322" data-name="Group 6322" transform="translate(0 9.234)"><path id="prefix__Path_29892" d="M598.746 187.256c15.768 9.3 41.707 9.558 57.642.578 8.153-4.594 12.175-10.755 12.05-16.925-.025-1.177 0-9.234 0-9.234s-5.559-3.461-11.713-7.1c-15.749-9.313-41.689-9.574-57.643-.578-7.133 4.022-12.064 7.367-12.064 7.367s-.013 8.777 0 9.548c.114 5.895 4.018 11.797 11.728 16.344z" class="prefix__cls-1" data-name="Path 29892" transform="translate(-587.015 -147.416)"/></g><path id="prefix__Path_29893" d="M598.747 174.851c15.768 9.3 41.707 9.558 57.642.579s16.088-23.947.339-33.261-41.689-9.574-57.643-.578-16.105 23.963-.338 33.26z" class="prefix__cls-2" data-name="Path 29893" transform="translate(-587.017 -135.011)"/><path id="prefix__Path_29894" d="M630.761 176.593c-9.749 0-19.127-2.229-25.725-6.26-5.176-3.163-8.124-7.012-8.092-10.633s3.062-7.443 8.307-10.507c6.437-3.761 15.156-5.821 24.551-5.821 9.747 0 19.115 2.321 25.7 6.358 5.176 3.171 8.122 7.073 8.086 10.7s-3.058 7.371-8.291 10.426c-6.428 3.753-15.14 5.738-24.535 5.738z" class="prefix__cls-3" data-name="Path 29894" transform="translate(-589.553 -137.147)"/><path id="prefix__Path_29895" d="M605.251 151.93c6.437-3.761 15.156-5.807 24.551-5.807 9.747 0 19.115 2.328 25.7 6.365 4.489 2.751 7.3 6.053 7.941 9.246a6.845 6.845 0 00.145-1.313c.036-3.627-2.91-7.532-8.086-10.7-6.587-4.037-15.956-6.365-25.7-6.365-9.4 0-18.114 2.046-24.551 5.808-5.245 3.064-8.273 6.852-8.307 10.479a6.921 6.921 0 00.145 1.445c.658-3.214 3.553-6.466 8.162-9.158z" class="prefix__cls-3" data-name="Path 29895" transform="translate(-589.553 -137.143)"/><g id="prefix__Group_6327" data-name="Group 6327" transform="translate(20.408 11.921)"><g id="prefix__Group_6323" class="prefix__cls-4" data-name="Group 6323" transform="translate(0 .744)"><path id="prefix__Path_29896" d="M646.475 161.957a2.435 2.435 0 00-.222-.956 6.762 6.762 0 00-.7-1.251 9.586 9.586 0 00-1.188-1.38 11.328 11.328 0 00-1.685-1.341L635.756 161l.542.467a27.943 27.943 0 012.492 2.557 6.255 6.255 0 011.308 2.256 2.634 2.634 0 01-.233 2.038 5.411 5.411 0 01-2.133 1.9 11.121 11.121 0 01-3.694 1.348 14.541 14.541 0 01-3.956.121 18.51 18.51 0 01-4.034-.884 23.057 23.057 0 01-3.858-1.705l-3.512 2.012-1.859-1.072 3.582-2.05a18.471 18.471 0 01-3.93-3.367 9.5 9.5 0 01-2.041-3.7l5.036-.787a3.1 3.1 0 00.266 1.156 8.061 8.061 0 00.84 1.525 12.807 12.807 0 001.419 1.705 14.584 14.584 0 002.009 1.7l6.928-3.966a4.349 4.349 0 00-.328-.324 4.182 4.182 0 01-.326-.324 25.566 25.566 0 01-2.3-2.465 4.954 4.954 0 01-1.069-2.063 2.452 2.452 0 01.325-1.8 5.2 5.2 0 011.922-1.644 11.766 11.766 0 013.522-1.315 15.491 15.491 0 013.9-.269 18.665 18.665 0 014.008.663 21.887 21.887 0 013.892 1.5l3.381-1.935 1.839 1.065-3.379 1.936a13.74 13.74 0 013.376 2.955 9.56 9.56 0 011.661 3zm-12.575-6.268q-1.408.8-1.065 1.812a7.429 7.429 0 001.938 2.546l6.594-3.775a10.274 10.274 0 00-4.144-1.3 5.891 5.891 0 00-3.323.717zm-.84 12.3q1.47-.844.977-2a9.89 9.89 0 00-2.132-2.789l-6.621 3.8a12.281 12.281 0 004.312 1.565 5.352 5.352 0 003.467-.579z" data-name="Path 29896" transform="translate(-614.43 -152.024)"/><path id="prefix__Path_29897" d="M646.475 161.957a2.435 2.435 0 00-.222-.956 6.762 6.762 0 00-.7-1.251 9.586 9.586 0 00-1.188-1.38 11.328 11.328 0 00-1.685-1.341L635.756 161l.542.467a27.943 27.943 0 012.492 2.557 6.255 6.255 0 011.308 2.256 2.634 2.634 0 01-.233 2.038 5.411 5.411 0 01-2.133 1.9 11.121 11.121 0 01-3.694 1.348 14.541 14.541 0 01-3.956.121 18.51 18.51 0 01-4.034-.884 23.057 23.057 0 01-3.858-1.705l-3.512 2.012-1.859-1.072 3.582-2.05a18.471 18.471 0 01-3.93-3.367 9.5 9.5 0 01-2.041-3.7l5.036-.787a3.1 3.1 0 00.266 1.156 8.061 8.061 0 00.84 1.525 12.807 12.807 0 001.419 1.705 14.584 14.584 0 002.009 1.7l6.928-3.966a4.349 4.349 0 00-.328-.324 4.182 4.182 0 01-.326-.324 25.566 25.566 0 01-2.3-2.465 4.954 4.954 0 01-1.069-2.063 2.452 2.452 0 01.325-1.8 5.2 5.2 0 011.922-1.644 11.766 11.766 0 013.522-1.315 15.491 15.491 0 013.9-.269 18.665 18.665 0 014.008.663 21.887 21.887 0 013.892 1.5l3.381-1.935 1.839 1.065-3.379 1.936a13.74 13.74 0 013.376 2.955 9.56 9.56 0 011.661 3zm-12.575-6.268q-1.408.8-1.065 1.812a7.429 7.429 0 001.938 2.546l6.594-3.775a10.274 10.274 0 00-4.144-1.3 5.891 5.891 0 00-3.323.717zm-.84 12.3q1.47-.844.977-2a9.89 9.89 0 00-2.132-2.789l-6.621 3.8a12.281 12.281 0 004.312 1.565 5.352 5.352 0 003.467-.579z" data-name="Path 29897" transform="translate(-614.43 -152.024)"/></g><g id="prefix__Group_6326" data-name="Group 6326"><g id="prefix__Group_6324" data-name="Group 6324"><path id="prefix__Path_29898" d="M646.475 160.957a2.435 2.435 0 00-.222-.956 6.762 6.762 0 00-.7-1.251 9.587 9.587 0 00-1.188-1.38 11.331 11.331 0 00-1.685-1.341L635.756 160l.542.467a27.941 27.941 0 012.492 2.557 6.255 6.255 0 011.308 2.256 2.634 2.634 0 01-.233 2.038 5.411 5.411 0 01-2.133 1.9 11.122 11.122 0 01-3.694 1.348 14.541 14.541 0 01-3.956.121 18.508 18.508 0 01-4.034-.884 23.055 23.055 0 01-3.858-1.705l-3.512 2.012-1.859-1.072 3.582-2.05a18.471 18.471 0 01-3.93-3.367 9.5 9.5 0 01-2.041-3.7l5.036-.787a3.1 3.1 0 00.266 1.156 8.062 8.062 0 00.84 1.525 12.8 12.8 0 001.419 1.705 14.584 14.584 0 002.009 1.7l6.928-3.966a4.354 4.354 0 00-.328-.324 4.185 4.185 0 01-.326-.324 25.566 25.566 0 01-2.3-2.465 4.953 4.953 0 01-1.069-2.063 2.452 2.452 0 01.325-1.8 5.2 5.2 0 011.922-1.644 11.766 11.766 0 013.522-1.315 15.491 15.491 0 013.9-.269 18.665 18.665 0 014.008.663 21.888 21.888 0 013.892 1.5l3.381-1.935 1.839 1.065-3.379 1.936a13.74 13.74 0 013.376 2.955 9.56 9.56 0 011.661 3zm-12.575-6.268q-1.408.8-1.065 1.812a7.429 7.429 0 001.938 2.546l6.594-3.775a10.274 10.274 0 00-4.144-1.3 5.891 5.891 0 00-3.323.717zm-.84 12.3q1.47-.844.977-1.995a9.891 9.891 0 00-2.132-2.789L625.284 166a12.281 12.281 0 004.312 1.565 5.352 5.352 0 003.467-.579z" class="prefix__cls-5" data-name="Path 29898" transform="translate(-614.43 -151.024)"/></g><g id="prefix__Group_6325" data-name="Group 6325"><path id="prefix__Path_29899" d="M646.475 160.957a2.435 2.435 0 00-.222-.956 6.762 6.762 0 00-.7-1.251 9.587 9.587 0 00-1.188-1.38 11.331 11.331 0 00-1.685-1.341L635.756 160l.542.467a27.941 27.941 0 012.492 2.557 6.255 6.255 0 011.308 2.256 2.634 2.634 0 01-.233 2.038 5.411 5.411 0 01-2.133 1.9 11.122 11.122 0 01-3.694 1.348 14.541 14.541 0 01-3.956.121 18.508 18.508 0 01-4.034-.884 23.055 23.055 0 01-3.858-1.705l-3.512 2.012-1.859-1.072 3.582-2.05a18.471 18.471 0 01-3.93-3.367 9.5 9.5 0 01-2.041-3.7l5.036-.787a3.1 3.1 0 00.266 1.156 8.062 8.062 0 00.84 1.525 12.8 12.8 0 001.419 1.705 14.584 14.584 0 002.009 1.7l6.928-3.966a4.354 4.354 0 00-.328-.324 4.185 4.185 0 01-.326-.324 25.566 25.566 0 01-2.3-2.465 4.953 4.953 0 01-1.069-2.063 2.452 2.452 0 01.325-1.8 5.2 5.2 0 011.922-1.644 11.766 11.766 0 013.522-1.315 15.491 15.491 0 013.9-.269 18.665 18.665 0 014.008.663 21.888 21.888 0 013.892 1.5l3.381-1.935 1.839 1.065-3.379 1.936a13.74 13.74 0 013.376 2.955 9.56 9.56 0 011.661 3zm-12.575-6.268q-1.408.8-1.065 1.812a7.429 7.429 0 001.938 2.546l6.594-3.775a10.274 10.274 0 00-4.144-1.3 5.891 5.891 0 00-3.323.717zm-.84 12.3q1.47-.844.977-1.995a9.891 9.891 0 00-2.132-2.789L625.284 166a12.281 12.281 0 004.312 1.565 5.352 5.352 0 003.467-.579z" class="prefix__cls-6" data-name="Path 29899" transform="translate(-614.43 -151.024)"/></g></g></g></g><g id="prefix__Group_6335" data-name="Group 6335" transform="translate(587.015 108.811)"><g id="prefix__Group_6329" data-name="Group 6329" transform="translate(0 9.234)"><path id="prefix__Path_29900" d="M598.746 169.919c15.768 9.3 41.707 9.558 57.642.579 8.153-4.594 12.175-10.756 12.05-16.926-.025-1.177 0-9.234 0-9.234s-5.559-3.461-11.713-7.1c-15.749-9.313-41.689-9.574-57.643-.578-7.133 4.022-12.064 7.367-12.064 7.367s-.013 8.777 0 9.548c.114 5.895 4.018 11.797 11.728 16.344z" class="prefix__cls-1" data-name="Path 29900" transform="translate(-587.015 -130.079)"/></g><path id="prefix__Path_29901" d="M598.747 157.514c15.768 9.3 41.707 9.558 57.642.579s16.088-23.947.339-33.261-41.689-9.574-57.643-.578-16.105 23.963-.338 33.26z" class="prefix__cls-2" data-name="Path 29901" transform="translate(-587.017 -117.674)"/><path id="prefix__Path_29902" d="M630.761 158.752c-9.749 0-19.127-1.982-25.725-6.013-5.176-3.163-8.124-6.889-8.092-10.509s3.062-7.381 8.307-10.446c6.437-3.761 15.156-5.79 24.551-5.79 9.747 0 19.115 2.336 25.7 6.373 5.176 3.172 8.122 7.081 8.086 10.707s-3.058 7.129-8.291 10.184c-6.428 3.753-15.14 5.494-24.535 5.494z" class="prefix__cls-3" data-name="Path 29902" transform="translate(-589.553 -119.8)"/><path id="prefix__Path_29903" d="M605.251 134.593c6.437-3.761 15.156-5.807 24.551-5.807 9.747 0 19.115 2.328 25.7 6.365 4.489 2.751 7.3 6.053 7.941 9.247a6.859 6.859 0 00.145-1.314c.036-3.627-2.91-7.532-8.086-10.7-6.587-4.037-15.956-6.365-25.7-6.365-9.4 0-18.114 2.047-24.551 5.808-5.245 3.064-8.273 6.852-8.307 10.479a6.921 6.921 0 00.145 1.445c.658-3.214 3.553-6.466 8.162-9.158z" class="prefix__cls-3" data-name="Path 29903" transform="translate(-589.553 -119.806)"/><g id="prefix__Group_6334" data-name="Group 6334" transform="translate(20.408 11.921)"><g id="prefix__Group_6330" class="prefix__cls-4" data-name="Group 6330" transform="translate(0 .744)"><path id="prefix__Path_29904" d="M646.475 144.621a2.43 2.43 0 00-.222-.956 6.744 6.744 0 00-.7-1.252 9.586 9.586 0 00-1.188-1.38 11.33 11.33 0 00-1.685-1.341l-6.925 3.968.542.467a27.943 27.943 0 012.492 2.557 6.255 6.255 0 011.308 2.256 2.634 2.634 0 01-.233 2.038 5.411 5.411 0 01-2.133 1.9 11.122 11.122 0 01-3.694 1.348 14.542 14.542 0 01-3.956.121 18.558 18.558 0 01-4.034-.884 23.056 23.056 0 01-3.858-1.705l-3.512 2.012-1.857-1.07 3.582-2.05a18.489 18.489 0 01-3.93-3.366 9.5 9.5 0 01-2.041-3.7l5.036-.787a3.1 3.1 0 00.266 1.156 8.06 8.06 0 00.84 1.525 12.858 12.858 0 001.419 1.706 14.637 14.637 0 002.009 1.7l6.928-3.966a4.354 4.354 0 00-.328-.324 4.313 4.313 0 01-.326-.323 25.566 25.566 0 01-2.3-2.466 4.949 4.949 0 01-1.069-2.063 2.452 2.452 0 01.325-1.8 5.2 5.2 0 011.922-1.644 11.726 11.726 0 013.522-1.315 15.455 15.455 0 013.9-.269 18.665 18.665 0 014.008.663 21.887 21.887 0 013.892 1.5l3.381-1.935 1.839 1.065-3.379 1.935a13.742 13.742 0 013.376 2.956 9.558 9.558 0 011.661 3zm-12.575-6.269q-1.408.8-1.065 1.812a7.429 7.429 0 001.938 2.546l6.594-3.775a10.274 10.274 0 00-4.144-1.3 5.891 5.891 0 00-3.323.717zm-.84 12.3q1.47-.844.977-1.995a9.89 9.89 0 00-2.132-2.789l-6.624 3.794a12.281 12.281 0 004.312 1.565 5.348 5.348 0 003.47-.578z" data-name="Path 29904" transform="translate(-614.43 -134.688)"/><path id="prefix__Path_29905" d="M646.475 144.621a2.43 2.43 0 00-.222-.956 6.744 6.744 0 00-.7-1.252 9.586 9.586 0 00-1.188-1.38 11.33 11.33 0 00-1.685-1.341l-6.925 3.968.542.467a27.943 27.943 0 012.492 2.557 6.255 6.255 0 011.308 2.256 2.634 2.634 0 01-.233 2.038 5.411 5.411 0 01-2.133 1.9 11.122 11.122 0 01-3.694 1.348 14.542 14.542 0 01-3.956.121 18.558 18.558 0 01-4.034-.884 23.056 23.056 0 01-3.858-1.705l-3.512 2.012-1.857-1.07 3.582-2.05a18.489 18.489 0 01-3.93-3.366 9.5 9.5 0 01-2.041-3.7l5.036-.787a3.1 3.1 0 00.266 1.156 8.06 8.06 0 00.84 1.525 12.858 12.858 0 001.419 1.706 14.637 14.637 0 002.009 1.7l6.928-3.966a4.354 4.354 0 00-.328-.324 4.313 4.313 0 01-.326-.323 25.566 25.566 0 01-2.3-2.466 4.949 4.949 0 01-1.069-2.063 2.452 2.452 0 01.325-1.8 5.2 5.2 0 011.922-1.644 11.726 11.726 0 013.522-1.315 15.455 15.455 0 013.9-.269 18.665 18.665 0 014.008.663 21.887 21.887 0 013.892 1.5l3.381-1.935 1.839 1.065-3.379 1.935a13.742 13.742 0 013.376 2.956 9.558 9.558 0 011.661 3zm-12.575-6.269q-1.408.8-1.065 1.812a7.429 7.429 0 001.938 2.546l6.594-3.775a10.274 10.274 0 00-4.144-1.3 5.891 5.891 0 00-3.323.717zm-.84 12.3q1.47-.844.977-1.995a9.89 9.89 0 00-2.132-2.789l-6.624 3.794a12.281 12.281 0 004.312 1.565 5.348 5.348 0 003.47-.578z" data-name="Path 29905" transform="translate(-614.43 -134.688)"/></g><g id="prefix__Group_6333" data-name="Group 6333"><g id="prefix__Group_6331" data-name="Group 6331"><path id="prefix__Path_29906" d="M646.475 143.621a2.43 2.43 0 00-.222-.956 6.742 6.742 0 00-.7-1.252 9.587 9.587 0 00-1.188-1.38 11.329 11.329 0 00-1.685-1.341l-6.925 3.968.542.467a27.943 27.943 0 012.492 2.557 6.255 6.255 0 011.308 2.256 2.634 2.634 0 01-.233 2.038 5.411 5.411 0 01-2.133 1.9 11.122 11.122 0 01-3.694 1.348 14.541 14.541 0 01-3.956.121 18.554 18.554 0 01-4.034-.884 23.056 23.056 0 01-3.858-1.705l-3.512 2.012-1.857-1.07 3.582-2.05a18.489 18.489 0 01-3.93-3.366 9.5 9.5 0 01-2.041-3.7l5.036-.787a3.1 3.1 0 00.266 1.156 8.062 8.062 0 00.84 1.525 12.856 12.856 0 001.419 1.706 14.634 14.634 0 002.009 1.7l6.928-3.966a4.352 4.352 0 00-.328-.324 4.308 4.308 0 01-.326-.323 25.565 25.565 0 01-2.3-2.466 4.949 4.949 0 01-1.069-2.063 2.452 2.452 0 01.325-1.8 5.2 5.2 0 011.922-1.644 11.726 11.726 0 013.522-1.315 15.455 15.455 0 013.9-.269 18.666 18.666 0 014.008.663 21.888 21.888 0 013.892 1.5l3.381-1.935 1.839 1.065-3.379 1.935a13.742 13.742 0 013.376 2.956 9.557 9.557 0 011.661 3zm-12.575-6.269q-1.408.8-1.065 1.812a7.429 7.429 0 001.938 2.546l6.594-3.775a10.273 10.273 0 00-4.144-1.3 5.891 5.891 0 00-3.323.717zm-.84 12.3q1.47-.844.977-1.995a9.891 9.891 0 00-2.132-2.789l-6.624 3.794a12.281 12.281 0 004.312 1.565 5.347 5.347 0 003.47-.578z" class="prefix__cls-5" data-name="Path 29906" transform="translate(-614.43 -133.688)"/></g><g id="prefix__Group_6332" data-name="Group 6332"><path id="prefix__Path_29907" d="M646.475 143.621a2.43 2.43 0 00-.222-.956 6.742 6.742 0 00-.7-1.252 9.587 9.587 0 00-1.188-1.38 11.329 11.329 0 00-1.685-1.341l-6.925 3.968.542.467a27.943 27.943 0 012.492 2.557 6.255 6.255 0 011.308 2.256 2.634 2.634 0 01-.233 2.038 5.411 5.411 0 01-2.133 1.9 11.122 11.122 0 01-3.694 1.348 14.541 14.541 0 01-3.956.121 18.554 18.554 0 01-4.034-.884 23.056 23.056 0 01-3.858-1.705l-3.512 2.012-1.857-1.07 3.582-2.05a18.489 18.489 0 01-3.93-3.366 9.5 9.5 0 01-2.041-3.7l5.036-.787a3.1 3.1 0 00.266 1.156 8.062 8.062 0 00.84 1.525 12.856 12.856 0 001.419 1.706 14.634 14.634 0 002.009 1.7l6.928-3.966a4.352 4.352 0 00-.328-.324 4.308 4.308 0 01-.326-.323 25.565 25.565 0 01-2.3-2.466 4.949 4.949 0 01-1.069-2.063 2.452 2.452 0 01.325-1.8 5.2 5.2 0 011.922-1.644 11.726 11.726 0 013.522-1.315 15.455 15.455 0 013.9-.269 18.666 18.666 0 014.008.663 21.888 21.888 0 013.892 1.5l3.381-1.935 1.839 1.065-3.379 1.935a13.742 13.742 0 013.376 2.956 9.557 9.557 0 011.661 3zm-12.575-6.269q-1.408.8-1.065 1.812a7.429 7.429 0 001.938 2.546l6.594-3.775a10.273 10.273 0 00-4.144-1.3 5.891 5.891 0 00-3.323.717zm-.84 12.3q1.47-.844.977-1.995a9.891 9.891 0 00-2.132-2.789l-6.624 3.794a12.281 12.281 0 004.312 1.565 5.347 5.347 0 003.47-.578z" class="prefix__cls-6" data-name="Path 29907" transform="translate(-614.43 -133.688)"/></g></g></g></g><g id="prefix__Group_6342" data-name="Group 6342" transform="translate(587.015 95.905)"><g id="prefix__Group_6336" data-name="Group 6336" transform="translate(0 9.234)"><path id="prefix__Path_29908" d="M598.746 152.582c15.768 9.3 41.707 9.558 57.642.579 8.153-4.594 12.175-10.756 12.05-16.926-.025-1.177 0-9.234 0-9.234s-5.559-3.461-11.713-7.1c-15.749-9.314-41.689-9.575-57.643-.579-7.133 4.022-12.064 7.367-12.064 7.367s-.013 8.777 0 9.548c.114 5.896 4.018 11.799 11.728 16.345z" class="prefix__cls-1" data-name="Path 29908" transform="translate(-587.015 -112.742)"/></g><path id="prefix__Path_29909" d="M598.747 140.178c15.768 9.3 41.707 9.557 57.642.578s16.088-23.947.339-33.261-41.689-9.574-57.643-.578-16.105 23.963-.338 33.261z" class="prefix__cls-2" data-name="Path 29909" transform="translate(-587.017 -100.337)"/><path id="prefix__Path_29910" d="M630.761 141.671c-9.749 0-19.127-2.107-25.725-6.139-5.176-3.162-8.124-6.951-8.092-10.572s3.062-7.413 8.307-10.477c6.437-3.76 15.156-5.806 24.551-5.806 9.747 0 19.115 2.328 25.7 6.365 5.176 3.171 8.122 7.076 8.086 10.7s-3.056 7.258-8.288 10.311c-6.428 3.753-15.14 5.618-24.535 5.618z" class="prefix__cls-3" data-name="Path 29910" transform="translate(-589.553 -102.469)"/><path id="prefix__Path_29911" d="M605.251 117.256c6.437-3.761 15.156-5.807 24.551-5.807 9.747 0 19.115 2.328 25.7 6.365 4.489 2.751 7.3 6.053 7.941 9.247a6.852 6.852 0 00.145-1.314c.036-3.627-2.91-7.532-8.086-10.7-6.587-4.037-15.956-6.365-25.7-6.365-9.4 0-18.114 2.047-24.551 5.808-5.245 3.065-8.273 6.852-8.307 10.479a6.921 6.921 0 00.145 1.445c.658-3.214 3.553-6.465 8.162-9.158z" class="prefix__cls-3" data-name="Path 29911" transform="translate(-589.553 -102.469)"/><g id="prefix__Group_6341" data-name="Group 6341" transform="translate(20.408 11.921)"><g id="prefix__Group_6337" class="prefix__cls-4" data-name="Group 6337" transform="translate(0 .744)"><path id="prefix__Path_29912" d="M646.475 127.284a2.433 2.433 0 00-.222-.956 6.743 6.743 0 00-.7-1.252 9.584 9.584 0 00-1.188-1.379 11.235 11.235 0 00-1.685-1.341l-6.925 3.967.542.467a28.035 28.035 0 012.492 2.557 6.255 6.255 0 011.311 2.253 2.634 2.634 0 01-.233 2.038 5.411 5.411 0 01-2.133 1.9 11.137 11.137 0 01-3.694 1.347 14.542 14.542 0 01-3.956.121 18.556 18.556 0 01-4.034-.884 23.057 23.057 0 01-3.858-1.705l-3.512 2.013-1.859-1.073 3.582-2.05a18.489 18.489 0 01-3.93-3.366 9.5 9.5 0 01-2.041-3.7l5.036-.787a3.094 3.094 0 00.266 1.156 8.062 8.062 0 00.84 1.525 12.856 12.856 0 001.419 1.706 14.582 14.582 0 002.009 1.7l6.928-3.965a4.219 4.219 0 00-.328-.325 4.313 4.313 0 01-.326-.323 25.563 25.563 0 01-2.3-2.466 4.949 4.949 0 01-1.076-2.062 2.453 2.453 0 01.325-1.8 5.2 5.2 0 011.922-1.644 11.726 11.726 0 013.522-1.315 15.49 15.49 0 013.9-.269 18.62 18.62 0 014.008.663 21.828 21.828 0 013.892 1.5l3.381-1.935 1.839 1.065-3.379 1.935a13.742 13.742 0 013.376 2.956 9.558 9.558 0 011.661 3zm-12.575-6.269q-1.408.8-1.065 1.812a7.429 7.429 0 001.938 2.546l6.594-3.775a10.274 10.274 0 00-4.144-1.3 5.9 5.9 0 00-3.323.717zm-.84 12.3q1.47-.844.977-2a9.89 9.89 0 00-2.132-2.789l-6.624 3.794a12.281 12.281 0 004.312 1.565 5.348 5.348 0 003.47-.573z" data-name="Path 29912" transform="translate(-614.43 -117.351)"/><path id="prefix__Path_29913" d="M646.475 127.284a2.433 2.433 0 00-.222-.956 6.743 6.743 0 00-.7-1.252 9.584 9.584 0 00-1.188-1.379 11.235 11.235 0 00-1.685-1.341l-6.925 3.967.542.467a28.035 28.035 0 012.492 2.557 6.255 6.255 0 011.311 2.253 2.634 2.634 0 01-.233 2.038 5.411 5.411 0 01-2.133 1.9 11.137 11.137 0 01-3.694 1.347 14.542 14.542 0 01-3.956.121 18.556 18.556 0 01-4.034-.884 23.057 23.057 0 01-3.858-1.705l-3.512 2.013-1.859-1.073 3.582-2.05a18.489 18.489 0 01-3.93-3.366 9.5 9.5 0 01-2.041-3.7l5.036-.787a3.094 3.094 0 00.266 1.156 8.062 8.062 0 00.84 1.525 12.856 12.856 0 001.419 1.706 14.582 14.582 0 002.009 1.7l6.928-3.965a4.219 4.219 0 00-.328-.325 4.313 4.313 0 01-.326-.323 25.563 25.563 0 01-2.3-2.466 4.949 4.949 0 01-1.076-2.062 2.453 2.453 0 01.325-1.8 5.2 5.2 0 011.922-1.644 11.726 11.726 0 013.522-1.315 15.49 15.49 0 013.9-.269 18.62 18.62 0 014.008.663 21.828 21.828 0 013.892 1.5l3.381-1.935 1.839 1.065-3.379 1.935a13.742 13.742 0 013.376 2.956 9.558 9.558 0 011.661 3zm-12.575-6.269q-1.408.8-1.065 1.812a7.429 7.429 0 001.938 2.546l6.594-3.775a10.274 10.274 0 00-4.144-1.3 5.9 5.9 0 00-3.323.717zm-.84 12.3q1.47-.844.977-2a9.89 9.89 0 00-2.132-2.789l-6.624 3.794a12.281 12.281 0 004.312 1.565 5.348 5.348 0 003.47-.573z" data-name="Path 29913" transform="translate(-614.43 -117.351)"/></g><g id="prefix__Group_6340" data-name="Group 6340"><g id="prefix__Group_6338" data-name="Group 6338"><path id="prefix__Path_29914" d="M646.475 126.284a2.433 2.433 0 00-.222-.956 6.743 6.743 0 00-.7-1.252 9.583 9.583 0 00-1.188-1.379 11.235 11.235 0 00-1.685-1.341l-6.925 3.967.542.467a28.036 28.036 0 012.492 2.557 6.255 6.255 0 011.311 2.253 2.634 2.634 0 01-.233 2.038 5.412 5.412 0 01-2.133 1.9 11.137 11.137 0 01-3.694 1.347 14.542 14.542 0 01-3.956.121 18.556 18.556 0 01-4.034-.884 23.059 23.059 0 01-3.858-1.705l-3.512 2.013-1.859-1.073 3.582-2.05a18.489 18.489 0 01-3.93-3.366 9.5 9.5 0 01-2.041-3.7l5.036-.787a3.094 3.094 0 00.266 1.156 8.062 8.062 0 00.84 1.525 12.858 12.858 0 001.419 1.706 14.582 14.582 0 002.009 1.7l6.928-3.965a4.219 4.219 0 00-.328-.325 4.315 4.315 0 01-.326-.323 25.563 25.563 0 01-2.3-2.466 4.949 4.949 0 01-1.076-2.062 2.453 2.453 0 01.325-1.8 5.2 5.2 0 011.922-1.644 11.726 11.726 0 013.522-1.315 15.49 15.49 0 013.9-.269 18.62 18.62 0 014.008.663 21.828 21.828 0 013.892 1.5l3.381-1.935 1.839 1.065-3.379 1.935a13.741 13.741 0 013.376 2.956 9.557 9.557 0 011.661 3zm-12.575-6.269q-1.408.8-1.065 1.812a7.429 7.429 0 001.938 2.546l6.594-3.775a10.274 10.274 0 00-4.144-1.3 5.9 5.9 0 00-3.323.717zm-.84 12.3q1.47-.844.977-2a9.89 9.89 0 00-2.132-2.789l-6.624 3.794a12.281 12.281 0 004.312 1.565 5.348 5.348 0 003.47-.573z" class="prefix__cls-5" data-name="Path 29914" transform="translate(-614.43 -116.351)"/></g><g id="prefix__Group_6339" data-name="Group 6339"><path id="prefix__Path_29915" d="M646.475 126.284a2.433 2.433 0 00-.222-.956 6.743 6.743 0 00-.7-1.252 9.583 9.583 0 00-1.188-1.379 11.235 11.235 0 00-1.685-1.341l-6.925 3.967.542.467a28.036 28.036 0 012.492 2.557 6.255 6.255 0 011.311 2.253 2.634 2.634 0 01-.233 2.038 5.412 5.412 0 01-2.133 1.9 11.137 11.137 0 01-3.694 1.347 14.542 14.542 0 01-3.956.121 18.556 18.556 0 01-4.034-.884 23.059 23.059 0 01-3.858-1.705l-3.512 2.013-1.859-1.073 3.582-2.05a18.489 18.489 0 01-3.93-3.366 9.5 9.5 0 01-2.041-3.7l5.036-.787a3.094 3.094 0 00.266 1.156 8.062 8.062 0 00.84 1.525 12.858 12.858 0 001.419 1.706 14.582 14.582 0 002.009 1.7l6.928-3.965a4.219 4.219 0 00-.328-.325 4.315 4.315 0 01-.326-.323 25.563 25.563 0 01-2.3-2.466 4.949 4.949 0 01-1.076-2.062 2.453 2.453 0 01.325-1.8 5.2 5.2 0 011.922-1.644 11.726 11.726 0 013.522-1.315 15.49 15.49 0 013.9-.269 18.62 18.62 0 014.008.663 21.828 21.828 0 013.892 1.5l3.381-1.935 1.839 1.065-3.379 1.935a13.741 13.741 0 013.376 2.956 9.557 9.557 0 011.661 3zm-12.575-6.269q-1.408.8-1.065 1.812a7.429 7.429 0 001.938 2.546l6.594-3.775a10.274 10.274 0 00-4.144-1.3 5.9 5.9 0 00-3.323.717zm-.84 12.3q1.47-.844.977-2a9.89 9.89 0 00-2.132-2.789l-6.624 3.794a12.281 12.281 0 004.312 1.565 5.348 5.348 0 003.47-.573z" class="prefix__cls-6" data-name="Path 29915" transform="translate(-614.43 -116.351)"/></g></g></g></g><g id="prefix__Group_6349" data-name="Group 6349" transform="translate(587.015 83)"><g id="prefix__Group_6343" data-name="Group 6343" transform="translate(0 9.234)"><path id="prefix__Path_29916" d="M598.746 135.246c15.768 9.3 41.707 9.557 57.642.578 8.153-4.594 12.175-10.756 12.05-16.925-.025-1.177 0-9.234 0-9.234s-5.559-3.461-11.713-7.1c-15.749-9.314-41.689-9.575-57.643-.578-7.133 4.022-12.064 7.366-12.064 7.366s-.013 8.777 0 9.548c.114 5.899 4.018 11.799 11.728 16.345z" class="prefix__cls-1" data-name="Path 29916" transform="translate(-587.015 -95.405)"/></g><path id="prefix__Path_29917" d="M598.747 122.841c15.768 9.3 41.707 9.557 57.642.578s16.088-23.947.339-33.261-41.689-9.574-57.643-.578-16.105 23.963-.338 33.261z" class="prefix__cls-2" data-name="Path 29917" transform="translate(-587.017 -83)"/><path id="prefix__Path_29918" d="M630.761 124.59c-9.749 0-19.127-2.232-25.725-6.264-5.176-3.163-8.124-7.014-8.092-10.635s3.062-7.444 8.307-10.508c6.437-3.761 15.156-5.822 24.551-5.822 9.747 0 19.115 2.32 25.7 6.357 5.176 3.172 8.122 7.073 8.086 10.7s-3.058 7.376-8.291 10.431c-6.428 3.753-15.14 5.742-24.535 5.742z" data-name="Path 29918" transform="translate(-589.553 -85.137)" style="mix-blend-mode:soft-light;isolation:isolate" opacity=".48" fill="#5b18c0"/><path id="prefix__Path_29919" d="M605.251 99.919c6.437-3.761 15.156-5.807 24.551-5.807 9.747 0 19.115 2.328 25.7 6.365 4.489 2.751 7.3 6.053 7.941 9.247a6.852 6.852 0 00.145-1.314c.036-3.627-2.91-7.532-8.086-10.7-6.587-4.036-15.956-6.364-25.7-6.364-9.4 0-18.114 2.046-24.551 5.807-5.245 3.065-8.273 6.853-8.307 10.48a6.919 6.919 0 00.145 1.444c.658-3.213 3.553-6.465 8.162-9.158z" class="prefix__cls-3" data-name="Path 29919" transform="translate(-589.553 -85.132)"/><g id="prefix__Group_6348" data-name="Group 6348" transform="translate(20.408 11.921)"><g id="prefix__Group_6344" class="prefix__cls-4" data-name="Group 6344" transform="translate(0 .744)"><path id="prefix__Path_29920" d="M646.475 109.947a2.433 2.433 0 00-.222-.956 6.766 6.766 0 00-.7-1.252 9.583 9.583 0 00-1.188-1.379 11.235 11.235 0 00-1.685-1.341l-6.925 3.967.542.467a28.134 28.134 0 012.492 2.557 6.255 6.255 0 011.308 2.256 2.634 2.634 0 01-.233 2.038 5.412 5.412 0 01-2.133 1.9 11.155 11.155 0 01-3.694 1.348 14.542 14.542 0 01-3.956.121 18.554 18.554 0 01-4.034-.884 23.06 23.06 0 01-3.858-1.706l-3.512 2.013-1.859-1.073 3.582-2.049a18.513 18.513 0 01-3.93-3.367 9.494 9.494 0 01-2.041-3.7l5.036-.787a3.094 3.094 0 00.266 1.156 8.089 8.089 0 00.84 1.525 12.9 12.9 0 001.419 1.705 14.637 14.637 0 002.009 1.7l6.928-3.966a4.085 4.085 0 00-.328-.324 4.463 4.463 0 01-.326-.324 25.654 25.654 0 01-2.3-2.465 4.958 4.958 0 01-1.069-2.063 2.452 2.452 0 01.325-1.8 5.189 5.189 0 011.922-1.644 11.746 11.746 0 013.522-1.315 15.456 15.456 0 013.9-.269 18.574 18.574 0 014.008.663 21.775 21.775 0 013.892 1.5l3.381-1.935 1.839 1.065-3.379 1.935a13.742 13.742 0 013.376 2.956 9.557 9.557 0 011.661 3zm-12.575-6.268q-1.408.8-1.065 1.811a7.422 7.422 0 001.938 2.546l6.594-3.774a10.264 10.264 0 00-4.144-1.3 5.891 5.891 0 00-3.323.717zm-.84 12.3q1.47-.844.977-1.995a9.911 9.911 0 00-2.132-2.789l-6.624 3.795a12.278 12.278 0 004.312 1.565 5.348 5.348 0 003.47-.58z" data-name="Path 29920" transform="translate(-614.43 -100.014)"/><path id="prefix__Path_29921" d="M646.475 109.947a2.433 2.433 0 00-.222-.956 6.766 6.766 0 00-.7-1.252 9.583 9.583 0 00-1.188-1.379 11.235 11.235 0 00-1.685-1.341l-6.925 3.967.542.467a28.134 28.134 0 012.492 2.557 6.255 6.255 0 011.308 2.256 2.634 2.634 0 01-.233 2.038 5.412 5.412 0 01-2.133 1.9 11.155 11.155 0 01-3.694 1.348 14.542 14.542 0 01-3.956.121 18.554 18.554 0 01-4.034-.884 23.06 23.06 0 01-3.858-1.706l-3.512 2.013-1.859-1.073 3.582-2.049a18.513 18.513 0 01-3.93-3.367 9.494 9.494 0 01-2.041-3.7l5.036-.787a3.094 3.094 0 00.266 1.156 8.089 8.089 0 00.84 1.525 12.9 12.9 0 001.419 1.705 14.637 14.637 0 002.009 1.7l6.928-3.966a4.085 4.085 0 00-.328-.324 4.463 4.463 0 01-.326-.324 25.654 25.654 0 01-2.3-2.465 4.958 4.958 0 01-1.069-2.063 2.452 2.452 0 01.325-1.8 5.189 5.189 0 011.922-1.644 11.746 11.746 0 013.522-1.315 15.456 15.456 0 013.9-.269 18.574 18.574 0 014.008.663 21.775 21.775 0 013.892 1.5l3.381-1.935 1.839 1.065-3.379 1.935a13.742 13.742 0 013.376 2.956 9.557 9.557 0 011.661 3zm-12.575-6.268q-1.408.8-1.065 1.811a7.422 7.422 0 001.938 2.546l6.594-3.774a10.264 10.264 0 00-4.144-1.3 5.891 5.891 0 00-3.323.717zm-.84 12.3q1.47-.844.977-1.995a9.911 9.911 0 00-2.132-2.789l-6.624 3.795a12.278 12.278 0 004.312 1.565 5.348 5.348 0 003.47-.58z" data-name="Path 29921" transform="translate(-614.43 -100.014)"/></g><g id="prefix__Group_6347" data-name="Group 6347"><g id="prefix__Group_6345" data-name="Group 6345"><path id="prefix__Path_29922" d="M646.475 108.947a2.433 2.433 0 00-.222-.956 6.767 6.767 0 00-.7-1.252 9.583 9.583 0 00-1.188-1.379 11.235 11.235 0 00-1.685-1.341l-6.925 3.967.542.467a28.133 28.133 0 012.492 2.557 6.255 6.255 0 011.308 2.256 2.634 2.634 0 01-.233 2.038 5.412 5.412 0 01-2.133 1.9 11.155 11.155 0 01-3.694 1.348 14.542 14.542 0 01-3.956.121 18.555 18.555 0 01-4.034-.884 23.06 23.06 0 01-3.858-1.706l-3.512 2.013-1.859-1.073 3.582-2.049a18.513 18.513 0 01-3.93-3.367 9.494 9.494 0 01-2.041-3.7l5.036-.787a3.094 3.094 0 00.266 1.156 8.089 8.089 0 00.84 1.525 12.9 12.9 0 001.419 1.705 14.637 14.637 0 002.009 1.7l6.928-3.966a4.085 4.085 0 00-.328-.324 4.463 4.463 0 01-.326-.324 25.653 25.653 0 01-2.3-2.465 4.958 4.958 0 01-1.069-2.063 2.452 2.452 0 01.325-1.8 5.189 5.189 0 011.922-1.644 11.746 11.746 0 013.522-1.315 15.456 15.456 0 013.9-.269 18.574 18.574 0 014.008.663 21.775 21.775 0 013.892 1.5l3.381-1.935 1.839 1.065-3.379 1.935a13.741 13.741 0 013.376 2.956 9.557 9.557 0 011.661 3zm-12.575-6.268q-1.408.8-1.065 1.811a7.422 7.422 0 001.938 2.546l6.594-3.774a10.264 10.264 0 00-4.144-1.3 5.892 5.892 0 00-3.323.717zm-.84 12.3q1.47-.844.977-1.995a9.911 9.911 0 00-2.132-2.789l-6.624 3.795a12.278 12.278 0 004.312 1.565 5.348 5.348 0 003.47-.58z" class="prefix__cls-5" data-name="Path 29922" transform="translate(-614.43 -99.014)"/></g><g id="prefix__Group_6346" data-name="Group 6346"><path id="prefix__Path_29923" d="M646.475 108.947a2.433 2.433 0 00-.222-.956 6.767 6.767 0 00-.7-1.252 9.583 9.583 0 00-1.188-1.379 11.235 11.235 0 00-1.685-1.341l-6.925 3.967.542.467a28.133 28.133 0 012.492 2.557 6.255 6.255 0 011.308 2.256 2.634 2.634 0 01-.233 2.038 5.412 5.412 0 01-2.133 1.9 11.155 11.155 0 01-3.694 1.348 14.542 14.542 0 01-3.956.121 18.555 18.555 0 01-4.034-.884 23.06 23.06 0 01-3.858-1.706l-3.512 2.013-1.859-1.073 3.582-2.049a18.513 18.513 0 01-3.93-3.367 9.494 9.494 0 01-2.041-3.7l5.036-.787a3.094 3.094 0 00.266 1.156 8.089 8.089 0 00.84 1.525 12.9 12.9 0 001.419 1.705 14.637 14.637 0 002.009 1.7l6.928-3.966a4.085 4.085 0 00-.328-.324 4.463 4.463 0 01-.326-.324 25.653 25.653 0 01-2.3-2.465 4.958 4.958 0 01-1.069-2.063 2.452 2.452 0 01.325-1.8 5.189 5.189 0 011.922-1.644 11.746 11.746 0 013.522-1.315 15.456 15.456 0 013.9-.269 18.574 18.574 0 014.008.663 21.775 21.775 0 013.892 1.5l3.381-1.935 1.839 1.065-3.379 1.935a13.741 13.741 0 013.376 2.956 9.557 9.557 0 011.661 3zm-12.575-6.268q-1.408.8-1.065 1.811a7.422 7.422 0 001.938 2.546l6.594-3.774a10.264 10.264 0 00-4.144-1.3 5.892 5.892 0 00-3.323.717zm-.84 12.3q1.47-.844.977-1.995a9.911 9.911 0 00-2.132-2.789l-6.624 3.795a12.278 12.278 0 004.312 1.565 5.348 5.348 0 003.47-.58z" data-name="Path 29923" transform="translate(-614.43 -99.014)" fill="#d9bfff" stroke="#d9bfff"/></g></g></g></g></g></svg>